G04*
G04 #@! TF.GenerationSoftware,Altium Limited,Altium Designer,25.8.1 (18)*
G04*
G04 Layer_Physical_Order=3*
G04 Layer_Color=16440176*
%FSLAX25Y25*%
%MOIN*%
G70*
G04*
G04 #@! TF.SameCoordinates,B1CEF322-6E4B-462D-A777-0404C650DA73*
G04*
G04*
G04 #@! TF.FilePolarity,Positive*
G04*
G01*
G75*
%ADD39C,0.01400*%
%ADD42C,0.01000*%
%ADD44C,0.04000*%
%ADD45C,0.05906*%
G36*
X303971Y375029D02*
X117029D01*
Y498471D01*
X303971D01*
Y375029D01*
D02*
G37*
%LPC*%
G36*
X212243Y491153D02*
X211646D01*
X211095Y490925D01*
X210673Y490503D01*
X210444Y489952D01*
Y489355D01*
X210673Y488804D01*
X211095Y488382D01*
X211646Y488153D01*
X212243D01*
X212794Y488382D01*
X213216Y488804D01*
X213444Y489355D01*
Y489952D01*
X213216Y490503D01*
X212794Y490925D01*
X212243Y491153D01*
D02*
G37*
G36*
X197116Y491036D02*
X196519D01*
X195968Y490807D01*
X195546Y490385D01*
X195318Y489834D01*
Y489237D01*
X195546Y488686D01*
X195968Y488264D01*
X196519Y488036D01*
X197116D01*
X197667Y488264D01*
X198089Y488686D01*
X198318Y489237D01*
Y489834D01*
X198089Y490385D01*
X197667Y490807D01*
X197116Y491036D01*
D02*
G37*
G36*
X189795D02*
X189199D01*
X188647Y490807D01*
X188225Y490385D01*
X187997Y489834D01*
Y489237D01*
X188225Y488686D01*
X188647Y488264D01*
X189199Y488036D01*
X189795D01*
X190347Y488264D01*
X190769Y488686D01*
X190997Y489237D01*
Y489834D01*
X190769Y490385D01*
X190347Y490807D01*
X189795Y491036D01*
D02*
G37*
G36*
X201798Y491000D02*
X201202D01*
X200650Y490772D01*
X200228Y490350D01*
X200000Y489798D01*
Y489202D01*
X200228Y488650D01*
X200650Y488228D01*
X201202Y488000D01*
X201798D01*
X202350Y488228D01*
X202772Y488650D01*
X203000Y489202D01*
Y489798D01*
X202772Y490350D01*
X202350Y490772D01*
X201798Y491000D01*
D02*
G37*
G36*
X183798D02*
X183202D01*
X182650Y490772D01*
X182228Y490350D01*
X182000Y489798D01*
Y489202D01*
X182228Y488650D01*
X182650Y488228D01*
X183202Y488000D01*
X183798D01*
X184350Y488228D01*
X184772Y488650D01*
X185000Y489202D01*
Y489798D01*
X184772Y490350D01*
X184350Y490772D01*
X183798Y491000D01*
D02*
G37*
G36*
X159298D02*
X158702D01*
X158150Y490772D01*
X157728Y490350D01*
X157500Y489798D01*
Y489202D01*
X157728Y488650D01*
X158150Y488228D01*
X158702Y488000D01*
X159298D01*
X159850Y488228D01*
X160272Y488650D01*
X160500Y489202D01*
Y489798D01*
X160272Y490350D01*
X159850Y490772D01*
X159298Y491000D01*
D02*
G37*
G36*
X134798D02*
X134202D01*
X133650Y490772D01*
X133228Y490350D01*
X133000Y489798D01*
Y489202D01*
X133228Y488650D01*
X133650Y488228D01*
X134202Y488000D01*
X134798D01*
X135350Y488228D01*
X135772Y488650D01*
X136000Y489202D01*
Y489798D01*
X135772Y490350D01*
X135350Y490772D01*
X134798Y491000D01*
D02*
G37*
G36*
X174422Y490743D02*
X173825D01*
X173274Y490514D01*
X172852Y490093D01*
X172624Y489541D01*
Y488944D01*
X172852Y488393D01*
X173274Y487971D01*
X173825Y487743D01*
X174422D01*
X174973Y487971D01*
X175395Y488393D01*
X175624Y488944D01*
Y489541D01*
X175395Y490093D01*
X174973Y490514D01*
X174422Y490743D01*
D02*
G37*
G36*
X165798Y490500D02*
X165202D01*
X164650Y490272D01*
X164228Y489850D01*
X164000Y489298D01*
Y488702D01*
X164228Y488150D01*
X164650Y487728D01*
X165202Y487500D01*
X165798D01*
X166350Y487728D01*
X166772Y488150D01*
X167000Y488702D01*
Y489298D01*
X166772Y489850D01*
X166350Y490272D01*
X165798Y490500D01*
D02*
G37*
G36*
X150298D02*
X149702D01*
X149150Y490272D01*
X148728Y489850D01*
X148500Y489298D01*
Y488702D01*
X148728Y488150D01*
X149150Y487728D01*
X149702Y487500D01*
X150298D01*
X150850Y487728D01*
X151272Y488150D01*
X151500Y488702D01*
Y489298D01*
X151272Y489850D01*
X150850Y490272D01*
X150298Y490500D01*
D02*
G37*
G36*
X139298D02*
X138702D01*
X138150Y490272D01*
X137728Y489850D01*
X137500Y489298D01*
Y488702D01*
X137728Y488150D01*
X138150Y487728D01*
X138702Y487500D01*
X139298D01*
X139850Y487728D01*
X140272Y488150D01*
X140500Y488702D01*
Y489298D01*
X140272Y489850D01*
X139850Y490272D01*
X139298Y490500D01*
D02*
G37*
G36*
X126798D02*
X126202D01*
X125650Y490272D01*
X125228Y489850D01*
X125000Y489298D01*
Y488702D01*
X125228Y488150D01*
X125650Y487728D01*
X126202Y487500D01*
X126798D01*
X127350Y487728D01*
X127772Y488150D01*
X128000Y488702D01*
Y489298D01*
X127772Y489850D01*
X127350Y490272D01*
X126798Y490500D01*
D02*
G37*
G36*
X218200Y490011D02*
X217603D01*
X217052Y489782D01*
X216630Y489360D01*
X216401Y488809D01*
Y488212D01*
X216630Y487661D01*
X217052Y487239D01*
X217603Y487011D01*
X218200D01*
X218751Y487239D01*
X219173Y487661D01*
X219401Y488212D01*
Y488809D01*
X219173Y489360D01*
X218751Y489782D01*
X218200Y490011D01*
D02*
G37*
G36*
X251147Y488500D02*
X250357D01*
X249594Y488296D01*
X248910Y487901D01*
X248351Y487342D01*
X247956Y486658D01*
X247752Y485895D01*
Y485529D01*
X214749D01*
X214500Y485902D01*
Y486498D01*
X214272Y487050D01*
X213850Y487472D01*
X213298Y487700D01*
X212702D01*
X212150Y487472D01*
X211728Y487050D01*
X211500Y486498D01*
Y485902D01*
X211251Y485529D01*
X199389D01*
X198803Y485413D01*
X198307Y485081D01*
X186495Y473269D01*
X186164Y472773D01*
X186047Y472188D01*
Y471412D01*
X186000Y471298D01*
Y471148D01*
X185971Y471000D01*
X186000Y470852D01*
Y470702D01*
X186058Y470563D01*
X186087Y470415D01*
X186171Y470290D01*
X186228Y470150D01*
X186335Y470044D01*
X186419Y469919D01*
X186544Y469835D01*
X186650Y469728D01*
X186790Y469671D01*
X186915Y469587D01*
X187063Y469558D01*
X187202Y469500D01*
X187352D01*
X187500Y469471D01*
X187648Y469500D01*
X187798D01*
X187937Y469558D01*
X188085Y469587D01*
X188210Y469671D01*
X188350Y469728D01*
X188456Y469835D01*
X188581Y469919D01*
X188658Y469995D01*
X188742Y470120D01*
X188772Y470150D01*
X188788Y470190D01*
X188989Y470491D01*
X189106Y471076D01*
Y471228D01*
X189580Y471617D01*
X189819Y471560D01*
X190150Y471228D01*
X190702Y471000D01*
X191298D01*
X191850Y471228D01*
X192272Y471650D01*
X192500Y472202D01*
Y472798D01*
X192272Y473350D01*
X191850Y473772D01*
X191762Y474211D01*
X200022Y482471D01*
X248440D01*
X249026Y482587D01*
X249383Y482826D01*
X249594Y482704D01*
X250357Y482500D01*
X251147D01*
X251910Y482704D01*
X252594Y483099D01*
X253153Y483658D01*
X253548Y484342D01*
X253752Y485105D01*
Y485895D01*
X253548Y486658D01*
X253153Y487342D01*
X252594Y487901D01*
X251910Y488296D01*
X251147Y488500D01*
D02*
G37*
G36*
X282643D02*
X281853D01*
X281090Y488296D01*
X280406Y487901D01*
X279847Y487342D01*
X279452Y486658D01*
X279248Y485895D01*
Y485105D01*
X279452Y484342D01*
X279847Y483658D01*
X280406Y483099D01*
X281090Y482704D01*
X281853Y482500D01*
X282643D01*
X283406Y482704D01*
X284090Y483099D01*
X284649Y483658D01*
X285044Y484342D01*
X285248Y485105D01*
Y485895D01*
X285044Y486658D01*
X284649Y487342D01*
X284090Y487901D01*
X283406Y488296D01*
X282643Y488500D01*
D02*
G37*
G36*
X180798Y483000D02*
X180202D01*
X179650Y482772D01*
X179228Y482350D01*
X179000Y481798D01*
Y481202D01*
X179228Y480650D01*
X179650Y480228D01*
X180202Y480000D01*
X180798D01*
X181350Y480228D01*
X181772Y480650D01*
X182000Y481202D01*
Y481798D01*
X181772Y482350D01*
X181350Y482772D01*
X180798Y483000D01*
D02*
G37*
G36*
X164798D02*
X164202D01*
X163650Y482772D01*
X163228Y482350D01*
X163000Y481798D01*
Y481202D01*
X163228Y480650D01*
X163650Y480228D01*
X164202Y480000D01*
X164798D01*
X165350Y480228D01*
X165772Y480650D01*
X166000Y481202D01*
Y481798D01*
X165772Y482350D01*
X165350Y482772D01*
X164798Y483000D01*
D02*
G37*
G36*
X159798D02*
X159202D01*
X158650Y482772D01*
X158228Y482350D01*
X158000Y481798D01*
Y481202D01*
X158228Y480650D01*
X158650Y480228D01*
X159202Y480000D01*
X159798D01*
X160350Y480228D01*
X160772Y480650D01*
X161000Y481202D01*
Y481798D01*
X160772Y482350D01*
X160350Y482772D01*
X159798Y483000D01*
D02*
G37*
G36*
X153798D02*
X153202D01*
X152650Y482772D01*
X152228Y482350D01*
X152000Y481798D01*
Y481202D01*
X152228Y480650D01*
X152650Y480228D01*
X153202Y480000D01*
X153798D01*
X154350Y480228D01*
X154772Y480650D01*
X155000Y481202D01*
Y481798D01*
X154772Y482350D01*
X154350Y482772D01*
X153798Y483000D01*
D02*
G37*
G36*
X141298D02*
X140702D01*
X140150Y482772D01*
X139728Y482350D01*
X139500Y481798D01*
Y481202D01*
X139728Y480650D01*
X140150Y480228D01*
X140702Y480000D01*
X141298D01*
X141850Y480228D01*
X142272Y480650D01*
X142500Y481202D01*
Y481798D01*
X142272Y482350D01*
X141850Y482772D01*
X141298Y483000D01*
D02*
G37*
G36*
X135298D02*
X134702D01*
X134150Y482772D01*
X133728Y482350D01*
X133500Y481798D01*
Y481202D01*
X133728Y480650D01*
X134150Y480228D01*
X134702Y480000D01*
X135298D01*
X135850Y480228D01*
X136272Y480650D01*
X136500Y481202D01*
Y481798D01*
X136272Y482350D01*
X135850Y482772D01*
X135298Y483000D01*
D02*
G37*
G36*
X169578Y482984D02*
X168981D01*
X168430Y482756D01*
X168008Y482334D01*
X167780Y481783D01*
Y481186D01*
X168008Y480635D01*
X168430Y480213D01*
X168981Y479984D01*
X169578D01*
X170129Y480213D01*
X170551Y480635D01*
X170780Y481186D01*
Y481783D01*
X170551Y482334D01*
X170129Y482756D01*
X169578Y482984D01*
D02*
G37*
G36*
X147592Y482984D02*
X146995D01*
X146444Y482756D01*
X146022Y482334D01*
X145793Y481783D01*
Y481186D01*
X146022Y480635D01*
X146444Y480213D01*
X146995Y479984D01*
X147592D01*
X148143Y480213D01*
X148565Y480635D01*
X148793Y481186D01*
Y481783D01*
X148565Y482334D01*
X148143Y482756D01*
X147592Y482984D01*
D02*
G37*
G36*
X176366Y482837D02*
X175769D01*
X175218Y482608D01*
X174796Y482186D01*
X174567Y481635D01*
Y481038D01*
X174796Y480487D01*
X175218Y480065D01*
X175769Y479837D01*
X176366D01*
X176917Y480065D01*
X177339Y480487D01*
X177567Y481038D01*
Y481635D01*
X177339Y482186D01*
X176917Y482608D01*
X176366Y482837D01*
D02*
G37*
G36*
X126798Y481500D02*
X126202D01*
X125650Y481272D01*
X125228Y480850D01*
X125000Y480298D01*
Y479702D01*
X125228Y479150D01*
X125650Y478728D01*
X126202Y478500D01*
X126798D01*
X127350Y478728D01*
X127772Y479150D01*
X128000Y479702D01*
Y480298D01*
X127772Y480850D01*
X127350Y481272D01*
X126798Y481500D01*
D02*
G37*
G36*
X189027Y481350D02*
X188430D01*
X187879Y481121D01*
X187457Y480699D01*
X187228Y480148D01*
Y479551D01*
X187457Y479000D01*
X187879Y478578D01*
X188430Y478350D01*
X189027D01*
X189578Y478578D01*
X190000Y479000D01*
X190228Y479551D01*
Y480148D01*
X190000Y480699D01*
X189578Y481121D01*
X189027Y481350D01*
D02*
G37*
G36*
X274769Y488500D02*
X273979D01*
X273216Y488296D01*
X272532Y487901D01*
X271973Y487342D01*
X271579Y486658D01*
X271374Y485895D01*
Y485105D01*
X271579Y484342D01*
X271935Y483724D01*
X264740Y476529D01*
X261846D01*
X261654Y476991D01*
X267261Y482598D01*
X267658Y482704D01*
X268342Y483099D01*
X268901Y483658D01*
X269296Y484342D01*
X269500Y485105D01*
Y485895D01*
X269296Y486658D01*
X268901Y487342D01*
X268342Y487901D01*
X267658Y488296D01*
X266895Y488500D01*
X266105D01*
X265342Y488296D01*
X264658Y487901D01*
X264099Y487342D01*
X263704Y486658D01*
X263500Y485895D01*
Y485105D01*
X263704Y484342D01*
X264061Y483724D01*
X259118Y478781D01*
X257849D01*
X257657Y479243D01*
X259707Y481293D01*
X260039Y481789D01*
X260155Y482374D01*
Y482919D01*
X260468Y483099D01*
X261027Y483658D01*
X261421Y484342D01*
X261626Y485105D01*
Y485895D01*
X261421Y486658D01*
X261027Y487342D01*
X260468Y487901D01*
X259784Y488296D01*
X259021Y488500D01*
X258231D01*
X257468Y488296D01*
X256784Y487901D01*
X256225Y487342D01*
X255830Y486658D01*
X255626Y485895D01*
Y485105D01*
X255830Y484342D01*
X256225Y483658D01*
X256633Y483251D01*
X256716Y482627D01*
X255118Y481029D01*
X213000D01*
X212415Y480913D01*
X211919Y480582D01*
X209947Y478610D01*
X209376Y478746D01*
X209044Y479077D01*
X208493Y479306D01*
X207896D01*
X207345Y479077D01*
X206923Y478655D01*
X206850Y478479D01*
X206350Y478272D01*
X205798Y478500D01*
X205202D01*
X204650Y478272D01*
X204228Y477850D01*
X204000Y477298D01*
Y476702D01*
X204228Y476150D01*
X204650Y475728D01*
X205202Y475500D01*
X205798D01*
X206350Y475728D01*
X206674Y476053D01*
X207113Y476082D01*
X207188Y475850D01*
X203419Y472081D01*
X203335Y471956D01*
X203228Y471850D01*
X203171Y471710D01*
X203087Y471585D01*
X203058Y471438D01*
X203000Y471298D01*
Y471148D01*
X202971Y471000D01*
X203000Y470852D01*
Y470702D01*
X203058Y470563D01*
X203087Y470415D01*
X203171Y470290D01*
X203228Y470150D01*
X203335Y470044D01*
X203419Y469919D01*
X203544Y469835D01*
X203650Y469728D01*
X203789Y469671D01*
X203915Y469587D01*
X204063Y469558D01*
X204202Y469500D01*
X204352D01*
X204500Y469471D01*
X204648Y469500D01*
X204798D01*
X204938Y469558D01*
X205085Y469587D01*
X205210Y469671D01*
X205350Y469728D01*
X205456Y469835D01*
X205581Y469919D01*
X210027Y474365D01*
X210500Y474130D01*
Y473702D01*
X210728Y473150D01*
X211150Y472728D01*
X211702Y472500D01*
X212130D01*
X212316Y472230D01*
X212389Y472038D01*
X212335Y471956D01*
X212228Y471850D01*
X212171Y471710D01*
X212087Y471585D01*
X212058Y471438D01*
X212000Y471298D01*
Y471148D01*
X211971Y471000D01*
X212000Y470852D01*
Y470702D01*
X212058Y470563D01*
X212087Y470415D01*
X212171Y470290D01*
X212228Y470150D01*
X212335Y470044D01*
X212419Y469919D01*
X212544Y469835D01*
X212650Y469728D01*
X212790Y469671D01*
X212915Y469587D01*
X213063Y469558D01*
X213202Y469500D01*
X213352D01*
X213500Y469471D01*
X213648Y469500D01*
X213798D01*
X213937Y469558D01*
X214085Y469587D01*
X214211Y469671D01*
X214350Y469728D01*
X214456Y469835D01*
X214581Y469919D01*
X216027Y471364D01*
X216473Y471160D01*
X216496Y471126D01*
X216471Y471000D01*
X216500Y470852D01*
Y470702D01*
X216558Y470563D01*
X216587Y470415D01*
X216671Y470290D01*
X216728Y470150D01*
X216835Y470044D01*
X216919Y469919D01*
X217044Y469835D01*
X217150Y469728D01*
X217289Y469671D01*
X217415Y469587D01*
X217563Y469558D01*
X217702Y469500D01*
X217852D01*
X218000Y469471D01*
X218148Y469500D01*
X218298D01*
X218438Y469558D01*
X218585Y469587D01*
X218710Y469671D01*
X218850Y469728D01*
X218956Y469835D01*
X219081Y469919D01*
X222634Y473471D01*
X223737D01*
X224071Y472971D01*
X224000Y472798D01*
Y472202D01*
X224228Y471650D01*
X224650Y471228D01*
X225202Y471000D01*
X225798D01*
X226350Y471228D01*
X226772Y471650D01*
X227000Y472202D01*
Y472798D01*
X226929Y472971D01*
X227263Y473471D01*
X248207D01*
X248398Y473009D01*
X248351Y472962D01*
X247956Y472278D01*
X247752Y471515D01*
Y470725D01*
X247956Y469962D01*
X248351Y469278D01*
X248910Y468719D01*
X249223Y468539D01*
Y454885D01*
X220866Y426529D01*
X213500D01*
X213352Y426500D01*
X213202D01*
X213063Y426442D01*
X212915Y426413D01*
X212790Y426329D01*
X212650Y426272D01*
X212544Y426165D01*
X212419Y426081D01*
X212335Y425956D01*
X212228Y425850D01*
X212171Y425710D01*
X212087Y425585D01*
X212058Y425437D01*
X212000Y425298D01*
Y425148D01*
X211971Y425000D01*
X212000Y424852D01*
Y424702D01*
X212058Y424563D01*
X212087Y424415D01*
X212171Y424290D01*
X212228Y424150D01*
X212335Y424044D01*
X212419Y423919D01*
X212544Y423835D01*
X212650Y423728D01*
X212790Y423671D01*
X212915Y423587D01*
X213063Y423558D01*
X213202Y423500D01*
X213352D01*
X213500Y423471D01*
X216623D01*
X216709Y423357D01*
X216845Y422971D01*
X216835Y422956D01*
X216728Y422850D01*
X216671Y422711D01*
X216587Y422585D01*
X216558Y422437D01*
X216500Y422298D01*
Y422148D01*
X216471Y422000D01*
X216500Y421852D01*
Y421702D01*
X216558Y421562D01*
X216587Y421415D01*
X216671Y421289D01*
X216728Y421150D01*
X216835Y421044D01*
X216919Y420919D01*
X216728Y420450D01*
X216500Y419898D01*
Y419302D01*
X216728Y418750D01*
X217150Y418328D01*
X217461Y418200D01*
X217362Y417700D01*
X217272D01*
X216721Y417471D01*
X216299Y417049D01*
X216070Y416498D01*
Y415901D01*
X216299Y415350D01*
X216721Y414928D01*
X217272Y414700D01*
X217868D01*
X218420Y414928D01*
X218842Y415350D01*
X219070Y415901D01*
Y416498D01*
X218842Y417049D01*
X218420Y417471D01*
X218109Y417600D01*
X218208Y418100D01*
X218298D01*
X218850Y418328D01*
X219272Y418750D01*
X219500Y419302D01*
Y419898D01*
X219470Y419971D01*
X219804Y420471D01*
X224000D01*
X224585Y420587D01*
X225081Y420919D01*
X259707Y455545D01*
X260039Y456041D01*
X260155Y456626D01*
Y468539D01*
X260468Y468719D01*
X261027Y469278D01*
X261421Y469962D01*
X261626Y470725D01*
Y471515D01*
X261421Y472278D01*
X261027Y472962D01*
X260980Y473009D01*
X261171Y473471D01*
X263955D01*
X264146Y473009D01*
X264099Y472962D01*
X263704Y472278D01*
X263500Y471515D01*
Y470725D01*
X263704Y469962D01*
X264099Y469278D01*
X264658Y468719D01*
X265342Y468325D01*
X266105Y468120D01*
X266895D01*
X267658Y468325D01*
X268342Y468719D01*
X268901Y469278D01*
X269296Y469962D01*
X269500Y470725D01*
Y471515D01*
X269296Y472278D01*
X268901Y472962D01*
X268342Y473521D01*
X267658Y473916D01*
X267265Y474021D01*
X267115Y474579D01*
X275135Y482598D01*
X275532Y482704D01*
X276216Y483099D01*
X276775Y483658D01*
X277170Y484342D01*
X277374Y485105D01*
Y485895D01*
X277170Y486658D01*
X276775Y487342D01*
X276216Y487901D01*
X275532Y488296D01*
X274769Y488500D01*
D02*
G37*
G36*
X146042Y476197D02*
X145446D01*
X144894Y475968D01*
X144472Y475546D01*
X144244Y474995D01*
Y474398D01*
X144472Y473847D01*
X144894Y473425D01*
X145446Y473197D01*
X146042D01*
X146594Y473425D01*
X147016Y473847D01*
X147244Y474398D01*
Y474995D01*
X147016Y475546D01*
X146594Y475968D01*
X146042Y476197D01*
D02*
G37*
G36*
X184798Y476000D02*
X184202D01*
X183650Y475772D01*
X183228Y475350D01*
X183000Y474798D01*
Y474202D01*
X183228Y473650D01*
X183650Y473228D01*
X184202Y473000D01*
X184798D01*
X185350Y473228D01*
X185772Y473650D01*
X186000Y474202D01*
Y474798D01*
X185772Y475350D01*
X185350Y475772D01*
X184798Y476000D01*
D02*
G37*
G36*
X135798D02*
X135202D01*
X134650Y475772D01*
X134228Y475350D01*
X134000Y474798D01*
Y474202D01*
X134228Y473650D01*
X134650Y473228D01*
X135202Y473000D01*
X135798D01*
X136350Y473228D01*
X136772Y473650D01*
X137000Y474202D01*
Y474798D01*
X136772Y475350D01*
X136350Y475772D01*
X135798Y476000D01*
D02*
G37*
G36*
X202945Y475678D02*
X202348D01*
X201797Y475450D01*
X201375Y475028D01*
X201146Y474476D01*
Y473880D01*
X201375Y473328D01*
X201797Y472906D01*
X202348Y472678D01*
X202945D01*
X203496Y472906D01*
X203918Y473328D01*
X204146Y473880D01*
Y474476D01*
X203918Y475028D01*
X203496Y475450D01*
X202945Y475678D01*
D02*
G37*
G36*
X156371Y475606D02*
X155775D01*
X155223Y475378D01*
X154801Y474956D01*
X154573Y474405D01*
Y473808D01*
X154801Y473257D01*
X155223Y472835D01*
X155775Y472606D01*
X156371D01*
X156923Y472835D01*
X157345Y473257D01*
X157573Y473808D01*
Y474405D01*
X157345Y474956D01*
X156923Y475378D01*
X156371Y475606D01*
D02*
G37*
G36*
X176298Y475500D02*
X175702D01*
X175150Y475272D01*
X174728Y474850D01*
X174500Y474298D01*
Y473702D01*
X174728Y473150D01*
X175150Y472728D01*
X175702Y472500D01*
X176298D01*
X176850Y472728D01*
X177272Y473150D01*
X177500Y473702D01*
Y474298D01*
X177272Y474850D01*
X176850Y475272D01*
X176298Y475500D01*
D02*
G37*
G36*
X167798D02*
X167202D01*
X166650Y475272D01*
X166228Y474850D01*
X166000Y474298D01*
Y473702D01*
X166228Y473150D01*
X166650Y472728D01*
X167202Y472500D01*
X167798D01*
X168350Y472728D01*
X168772Y473150D01*
X169000Y473702D01*
Y474298D01*
X168772Y474850D01*
X168350Y475272D01*
X167798Y475500D01*
D02*
G37*
G36*
X198948Y473854D02*
X198351D01*
X197800Y473626D01*
X197378Y473204D01*
X197149Y472652D01*
Y472055D01*
X197378Y471504D01*
X197800Y471082D01*
X198351Y470854D01*
X198948D01*
X199499Y471082D01*
X199921Y471504D01*
X200149Y472055D01*
Y472652D01*
X199921Y473204D01*
X199499Y473626D01*
X198948Y473854D01*
D02*
G37*
G36*
X210126Y472595D02*
X209529D01*
X208978Y472366D01*
X208556Y471944D01*
X208327Y471393D01*
Y470796D01*
X208556Y470245D01*
X208978Y469823D01*
X209529Y469595D01*
X210126D01*
X210677Y469823D01*
X211099Y470245D01*
X211327Y470796D01*
Y471393D01*
X211099Y471944D01*
X210677Y472366D01*
X210126Y472595D01*
D02*
G37*
G36*
X282643Y474120D02*
X281853D01*
X281090Y473916D01*
X280406Y473521D01*
X279847Y472962D01*
X279452Y472278D01*
X279248Y471515D01*
Y470725D01*
X279452Y469962D01*
X279847Y469278D01*
X280406Y468719D01*
X281090Y468325D01*
X281853Y468120D01*
X282643D01*
X283406Y468325D01*
X284090Y468719D01*
X284649Y469278D01*
X285044Y469962D01*
X285248Y470725D01*
Y471515D01*
X285044Y472278D01*
X284649Y472962D01*
X284090Y473521D01*
X283406Y473916D01*
X282643Y474120D01*
D02*
G37*
G36*
X274769D02*
X273979D01*
X273216Y473916D01*
X272532Y473521D01*
X271973Y472962D01*
X271579Y472278D01*
X271374Y471515D01*
Y470725D01*
X271579Y469962D01*
X271973Y469278D01*
X272532Y468719D01*
X273216Y468325D01*
X273979Y468120D01*
X274769D01*
X275532Y468325D01*
X276216Y468719D01*
X276775Y469278D01*
X277170Y469962D01*
X277374Y470725D01*
Y471515D01*
X277170Y472278D01*
X276775Y472962D01*
X276216Y473521D01*
X275532Y473916D01*
X274769Y474120D01*
D02*
G37*
G36*
X126775Y470010D02*
X126178D01*
X125627Y469782D01*
X125205Y469360D01*
X124977Y468809D01*
Y468212D01*
X125205Y467661D01*
X125627Y467239D01*
X126178Y467010D01*
X126775D01*
X127326Y467239D01*
X127748Y467661D01*
X127977Y468212D01*
Y468809D01*
X127748Y469360D01*
X127326Y469782D01*
X126775Y470010D01*
D02*
G37*
G36*
X178798Y468500D02*
X178202D01*
X177650Y468272D01*
X177228Y467850D01*
X177000Y467298D01*
Y466702D01*
X177228Y466150D01*
X177650Y465728D01*
X178202Y465500D01*
X178798D01*
X179350Y465728D01*
X179772Y466150D01*
X180000Y466702D01*
Y467298D01*
X179772Y467850D01*
X179350Y468272D01*
X178798Y468500D01*
D02*
G37*
G36*
X169298Y467500D02*
X168702D01*
X168150Y467272D01*
X167728Y466850D01*
X167500Y466298D01*
Y465702D01*
X167728Y465150D01*
X168150Y464728D01*
X168702Y464500D01*
X169298D01*
X169850Y464728D01*
X170272Y465150D01*
X170500Y465702D01*
Y466298D01*
X170272Y466850D01*
X169850Y467272D01*
X169298Y467500D01*
D02*
G37*
G36*
X157798D02*
X157202D01*
X156650Y467272D01*
X156228Y466850D01*
X156000Y466298D01*
Y465702D01*
X156228Y465150D01*
X156650Y464728D01*
X157202Y464500D01*
X157798D01*
X158350Y464728D01*
X158772Y465150D01*
X159000Y465702D01*
Y466298D01*
X158772Y466850D01*
X158350Y467272D01*
X157798Y467500D01*
D02*
G37*
G36*
X140288Y467490D02*
X139691D01*
X139139Y467262D01*
X138718Y466840D01*
X138489Y466289D01*
Y465692D01*
X138718Y465141D01*
X139139Y464719D01*
X139691Y464490D01*
X140288D01*
X140839Y464719D01*
X141261Y465141D01*
X141489Y465692D01*
Y466289D01*
X141261Y466840D01*
X140839Y467262D01*
X140288Y467490D01*
D02*
G37*
G36*
X149298Y467000D02*
X148702D01*
X148150Y466772D01*
X147728Y466350D01*
X147500Y465798D01*
Y465202D01*
X147728Y464650D01*
X148150Y464228D01*
X148702Y464000D01*
X149298D01*
X149850Y464228D01*
X150272Y464650D01*
X150500Y465202D01*
Y465798D01*
X150272Y466350D01*
X149850Y466772D01*
X149298Y467000D01*
D02*
G37*
G36*
X225798Y469500D02*
X225202D01*
X224650Y469272D01*
X224228Y468850D01*
X224000Y468298D01*
Y467702D01*
X224228Y467150D01*
X224591Y466788D01*
X224624Y466500D01*
X224591Y466212D01*
X224228Y465850D01*
X224000Y465298D01*
Y464702D01*
X224228Y464150D01*
X224650Y463728D01*
X225202Y463500D01*
X225798D01*
X226350Y463728D01*
X226772Y464150D01*
X227000Y464702D01*
Y465298D01*
X226772Y465850D01*
X226409Y466212D01*
X226376Y466500D01*
X226409Y466788D01*
X226772Y467150D01*
X227000Y467702D01*
Y468298D01*
X226772Y468850D01*
X226350Y469272D01*
X225798Y469500D01*
D02*
G37*
G36*
X204798Y461000D02*
X204202D01*
X203650Y460772D01*
X203288Y460409D01*
X203000Y460376D01*
X202712Y460409D01*
X202350Y460772D01*
X201798Y461000D01*
X201202D01*
X200650Y460772D01*
X200228Y460350D01*
X200000Y459798D01*
Y459202D01*
X200228Y458650D01*
X200650Y458228D01*
X201202Y458000D01*
X201798D01*
X202350Y458228D01*
X202712Y458591D01*
X203000Y458624D01*
X203288Y458591D01*
X203650Y458228D01*
X204202Y458000D01*
X204798D01*
X205350Y458228D01*
X205772Y458650D01*
X206000Y459202D01*
Y459798D01*
X205772Y460350D01*
X205350Y460772D01*
X204798Y461000D01*
D02*
G37*
G36*
X127797Y463310D02*
X127200D01*
X126649Y463082D01*
X126227Y462660D01*
X125999Y462109D01*
Y461512D01*
X126227Y460961D01*
X126649Y460539D01*
X127200Y460310D01*
X127797D01*
X128348Y460539D01*
X128770Y460961D01*
X128999Y461512D01*
Y462109D01*
X128770Y462660D01*
X128348Y463082D01*
X127797Y463310D01*
D02*
G37*
G36*
X217131Y461107D02*
X216535D01*
X215984Y460879D01*
X215562Y460457D01*
X215415Y460103D01*
X214874D01*
X214772Y460350D01*
X214350Y460772D01*
X213798Y461000D01*
X213202D01*
X212650Y460772D01*
X212228Y460350D01*
X212000Y459798D01*
Y459202D01*
X212228Y458650D01*
X212650Y458228D01*
X213202Y458000D01*
X213798D01*
X214350Y458228D01*
X214772Y458650D01*
X214918Y459004D01*
X215459D01*
X215562Y458758D01*
X215984Y458336D01*
X216535Y458107D01*
X217131D01*
X217683Y458336D01*
X218105Y458758D01*
X218333Y459309D01*
Y459906D01*
X218105Y460457D01*
X217683Y460879D01*
X217131Y461107D01*
D02*
G37*
G36*
X221298Y461500D02*
X220702D01*
X220150Y461272D01*
X219728Y460850D01*
X219500Y460298D01*
Y459702D01*
X219728Y459150D01*
X220150Y458728D01*
X220702Y458500D01*
X221298D01*
X221850Y458728D01*
X222272Y459150D01*
X222500Y459702D01*
Y460298D01*
X222272Y460850D01*
X221850Y461272D01*
X221298Y461500D01*
D02*
G37*
G36*
X193298D02*
X192702D01*
X192150Y461272D01*
X191728Y460850D01*
X191500Y460298D01*
Y459702D01*
X191728Y459150D01*
X192150Y458728D01*
X192702Y458500D01*
X193298D01*
X193850Y458728D01*
X194272Y459150D01*
X194500Y459702D01*
Y460298D01*
X194272Y460850D01*
X193850Y461272D01*
X193298Y461500D01*
D02*
G37*
G36*
X188798D02*
X188202D01*
X187650Y461272D01*
X187228Y460850D01*
X187000Y460298D01*
Y459702D01*
X187228Y459150D01*
X187650Y458728D01*
X188202Y458500D01*
X188798D01*
X189350Y458728D01*
X189772Y459150D01*
X190000Y459702D01*
Y460298D01*
X189772Y460850D01*
X189350Y461272D01*
X188798Y461500D01*
D02*
G37*
G36*
X209298Y461000D02*
X208702D01*
X208150Y460772D01*
X207728Y460350D01*
X207500Y459798D01*
Y459202D01*
X207728Y458650D01*
X208150Y458228D01*
X208702Y458000D01*
X209298D01*
X209850Y458228D01*
X210272Y458650D01*
X210500Y459202D01*
Y459798D01*
X210272Y460350D01*
X209850Y460772D01*
X209298Y461000D01*
D02*
G37*
G36*
X197298D02*
X196702D01*
X196150Y460772D01*
X195728Y460350D01*
X195500Y459798D01*
Y459202D01*
X195728Y458650D01*
X196150Y458228D01*
X196702Y458000D01*
X197298D01*
X197850Y458228D01*
X198272Y458650D01*
X198500Y459202D01*
Y459798D01*
X198272Y460350D01*
X197850Y460772D01*
X197298Y461000D01*
D02*
G37*
G36*
X170298D02*
X169702D01*
X169150Y460772D01*
X168728Y460350D01*
X168500Y459798D01*
Y459202D01*
X168728Y458650D01*
X169150Y458228D01*
X169702Y458000D01*
X170298D01*
X170850Y458228D01*
X171272Y458650D01*
X171500Y459202D01*
Y459798D01*
X171272Y460350D01*
X170850Y460772D01*
X170298Y461000D01*
D02*
G37*
G36*
X160061Y460629D02*
X159464D01*
X158913Y460401D01*
X158491Y459979D01*
X158262Y459427D01*
Y458831D01*
X158491Y458279D01*
X158913Y457857D01*
X159464Y457629D01*
X160061D01*
X160612Y457857D01*
X161034Y458279D01*
X161262Y458831D01*
Y459427D01*
X161034Y459979D01*
X160612Y460401D01*
X160061Y460629D01*
D02*
G37*
G36*
X150298Y459500D02*
X149702D01*
X149150Y459272D01*
X148728Y458850D01*
X148500Y458298D01*
Y457702D01*
X148728Y457150D01*
X149150Y456728D01*
X149702Y456500D01*
X150298D01*
X150850Y456728D01*
X151272Y457150D01*
X151500Y457702D01*
Y458298D01*
X151272Y458850D01*
X150850Y459272D01*
X150298Y459500D01*
D02*
G37*
G36*
X139798Y459000D02*
X139202D01*
X138650Y458772D01*
X138228Y458350D01*
X138000Y457798D01*
Y457202D01*
X138228Y456650D01*
X138650Y456228D01*
X139202Y456000D01*
X139798D01*
X140350Y456228D01*
X140772Y456650D01*
X141000Y457202D01*
Y457798D01*
X140772Y458350D01*
X140350Y458772D01*
X139798Y459000D01*
D02*
G37*
G36*
X178653Y458563D02*
X178056D01*
X177505Y458335D01*
X177083Y457913D01*
X176855Y457362D01*
Y456765D01*
X177083Y456214D01*
X177505Y455792D01*
X178056Y455563D01*
X178653D01*
X179204Y455792D01*
X179626Y456214D01*
X179855Y456765D01*
Y457362D01*
X179626Y457913D01*
X179204Y458335D01*
X178653Y458563D01*
D02*
G37*
G36*
X164798Y455000D02*
X164202D01*
X163650Y454772D01*
X163228Y454350D01*
X163146Y454152D01*
X162566Y454056D01*
X162350Y454272D01*
X161798Y454500D01*
X161202D01*
X160650Y454272D01*
X160228Y453850D01*
X160000Y453298D01*
Y452702D01*
X160228Y452150D01*
X160650Y451728D01*
X161202Y451500D01*
X161203D01*
X161410Y451000D01*
X161000Y450590D01*
X160500Y450797D01*
Y450798D01*
X160272Y451350D01*
X159850Y451772D01*
X159298Y452000D01*
X158702D01*
X158150Y451772D01*
X157728Y451350D01*
X157500Y450798D01*
Y450202D01*
X157728Y449650D01*
X157944Y449435D01*
X157848Y448853D01*
X157650Y448772D01*
X157228Y448350D01*
X157000Y447798D01*
Y447202D01*
X157228Y446650D01*
X157650Y446228D01*
X158202Y446000D01*
X158379Y445500D01*
X158228Y445350D01*
X158000Y444798D01*
Y444202D01*
X158228Y443650D01*
X158650Y443228D01*
X158851Y443145D01*
X159177Y442890D01*
X159101Y442542D01*
X159000Y442298D01*
Y441702D01*
X159228Y441150D01*
X159629Y440750D01*
X159228Y440350D01*
X159000Y439798D01*
Y439202D01*
X159228Y438650D01*
X159650Y438228D01*
X160202Y438000D01*
X160798D01*
X161350Y438228D01*
X161772Y438650D01*
X162000Y439202D01*
Y439798D01*
X161772Y440350D01*
X161371Y440750D01*
X161772Y441150D01*
X162000Y441702D01*
Y442298D01*
X161772Y442850D01*
X161350Y443272D01*
X161149Y443355D01*
X160823Y443610D01*
X160899Y443958D01*
X161000Y444202D01*
Y444703D01*
X161269Y444885D01*
X161462Y444948D01*
X161573Y444837D01*
X162474Y444317D01*
X163480Y444047D01*
X164520D01*
X165526Y444317D01*
X166404Y444824D01*
X166452Y444808D01*
X166802Y444479D01*
X166752Y444356D01*
Y443759D01*
X166859Y443500D01*
X166712Y443034D01*
X166586Y442952D01*
X166150Y442772D01*
X165728Y442350D01*
X165500Y441798D01*
Y441202D01*
X165728Y440650D01*
X166129Y440250D01*
X165728Y439850D01*
X165500Y439298D01*
Y438702D01*
X165728Y438150D01*
X166129Y437750D01*
X165728Y437350D01*
X165500Y436798D01*
Y436202D01*
X165728Y435650D01*
X166129Y435250D01*
X165728Y434850D01*
X165500Y434298D01*
Y433702D01*
X165728Y433150D01*
X166150Y432728D01*
X166702Y432500D01*
X167249D01*
X167426Y432340D01*
X167622Y432093D01*
X167500Y431798D01*
Y431202D01*
X167728Y430650D01*
X168129Y430250D01*
X167728Y429850D01*
X167500Y429298D01*
Y428702D01*
X167728Y428150D01*
X168078Y427801D01*
X167907Y427630D01*
X167679Y427078D01*
Y426482D01*
X167907Y425931D01*
X168329Y425508D01*
X168476Y425448D01*
Y424906D01*
X168150Y424772D01*
X167728Y424350D01*
X167500Y423798D01*
Y423202D01*
X167728Y422650D01*
X168129Y422250D01*
X167728Y421850D01*
X167500Y421298D01*
Y420702D01*
X167728Y420150D01*
X167525Y419646D01*
X167228Y419350D01*
X167000Y418798D01*
Y418202D01*
X167228Y417650D01*
X167650Y417228D01*
X168202Y417000D01*
X168798D01*
X169350Y417228D01*
X169772Y417650D01*
X170000Y418202D01*
Y418798D01*
X169772Y419350D01*
X169975Y419854D01*
X170272Y420150D01*
X170500Y420702D01*
Y421298D01*
X170272Y421850D01*
X169871Y422250D01*
X170272Y422650D01*
X170500Y423202D01*
Y423798D01*
X170272Y424350D01*
X169850Y424772D01*
X169703Y424832D01*
Y425374D01*
X170028Y425508D01*
X170450Y425931D01*
X170679Y426482D01*
Y427078D01*
X170450Y427630D01*
X170101Y427980D01*
X170272Y428150D01*
X170500Y428702D01*
Y429298D01*
X170272Y429850D01*
X169871Y430250D01*
X170272Y430650D01*
X170500Y431202D01*
Y431798D01*
X170272Y432350D01*
X169850Y432772D01*
X169298Y433000D01*
X168751D01*
X168574Y433160D01*
X168378Y433407D01*
X168500Y433702D01*
Y434298D01*
X168272Y434850D01*
X167871Y435250D01*
X168272Y435650D01*
X168500Y436202D01*
Y436798D01*
X168272Y437350D01*
X167871Y437750D01*
X168272Y438150D01*
X168500Y438702D01*
Y439298D01*
X168272Y439850D01*
X167871Y440250D01*
X168272Y440650D01*
X168500Y441202D01*
Y441798D01*
X168393Y442058D01*
X168539Y442524D01*
X168666Y442606D01*
X169101Y442786D01*
X169523Y443208D01*
X169752Y443759D01*
Y444356D01*
X169523Y444908D01*
X169101Y445330D01*
X168550Y445558D01*
X167953D01*
X167662Y445437D01*
X167314Y445834D01*
X167683Y446474D01*
X167713Y446587D01*
X168125Y446638D01*
X168244Y446635D01*
X168650Y446228D01*
X169202Y446000D01*
X169798D01*
X170350Y446228D01*
X170772Y446650D01*
X171000Y447202D01*
Y447798D01*
X170772Y448350D01*
X170350Y448772D01*
X170330Y448780D01*
X170180Y449383D01*
X170337Y449763D01*
Y450359D01*
X170109Y450911D01*
X169687Y451333D01*
X169135Y451561D01*
X168876D01*
X168542Y452061D01*
X168580Y452154D01*
Y452751D01*
X168352Y453302D01*
X167930Y453724D01*
X167378Y453953D01*
X166782D01*
X166487Y453830D01*
X166149Y453808D01*
X165883Y454080D01*
X165772Y454350D01*
X165350Y454772D01*
X164798Y455000D01*
D02*
G37*
G36*
X221798Y457000D02*
X221202D01*
X220650Y456772D01*
X220228Y456350D01*
X220000Y455798D01*
Y455202D01*
X220228Y454650D01*
X220650Y454228D01*
X221202Y454000D01*
X221798D01*
X222350Y454228D01*
X222772Y454650D01*
X223000Y455202D01*
Y455798D01*
X222772Y456350D01*
X222350Y456772D01*
X221798Y457000D01*
D02*
G37*
G36*
X128251Y456837D02*
X127655D01*
X127103Y456609D01*
X126681Y456187D01*
X126453Y455636D01*
Y455039D01*
X126681Y454488D01*
X127103Y454066D01*
X127655Y453837D01*
X128251D01*
X128803Y454066D01*
X129225Y454488D01*
X129453Y455039D01*
Y455636D01*
X129225Y456187D01*
X128803Y456609D01*
X128251Y456837D01*
D02*
G37*
G36*
X216798Y456500D02*
X216202D01*
X215650Y456272D01*
X215228Y455850D01*
X215000Y455298D01*
Y454702D01*
X215228Y454150D01*
X215650Y453728D01*
X216202Y453500D01*
X216798D01*
X217350Y453728D01*
X217772Y454150D01*
X218000Y454702D01*
Y455298D01*
X217772Y455850D01*
X217350Y456272D01*
X216798Y456500D01*
D02*
G37*
G36*
X199465Y456004D02*
X198868D01*
X198317Y455775D01*
X197895Y455353D01*
X197666Y454802D01*
Y454205D01*
X197895Y453654D01*
X198317Y453232D01*
X198868Y453004D01*
X199465D01*
X200016Y453232D01*
X200438Y453654D01*
X200666Y454205D01*
Y454802D01*
X200438Y455353D01*
X200016Y455775D01*
X199465Y456004D01*
D02*
G37*
G36*
X210298Y456000D02*
X209702D01*
X209150Y455772D01*
X208728Y455350D01*
X208500Y454798D01*
Y454202D01*
X208728Y453650D01*
X209150Y453228D01*
X209702Y453000D01*
X210298D01*
X210850Y453228D01*
X211272Y453650D01*
X211500Y454202D01*
Y454798D01*
X211272Y455350D01*
X210850Y455772D01*
X210298Y456000D01*
D02*
G37*
G36*
X192298D02*
X191702D01*
X191150Y455772D01*
X190728Y455350D01*
X190500Y454798D01*
Y454202D01*
X190728Y453650D01*
X191150Y453228D01*
X191702Y453000D01*
X192298D01*
X192850Y453228D01*
X193272Y453650D01*
X193500Y454202D01*
Y454798D01*
X193272Y455350D01*
X192850Y455772D01*
X192298Y456000D01*
D02*
G37*
G36*
X205027Y455807D02*
X204430D01*
X203878Y455579D01*
X203456Y455157D01*
X203228Y454606D01*
Y454009D01*
X203456Y453458D01*
X203878Y453036D01*
X204430Y452807D01*
X205027D01*
X205578Y453036D01*
X206000Y453458D01*
X206228Y454009D01*
Y454606D01*
X206000Y455157D01*
X205578Y455579D01*
X205027Y455807D01*
D02*
G37*
G36*
X188210Y455611D02*
X187613D01*
X187062Y455383D01*
X186640Y454961D01*
X186412Y454409D01*
Y453813D01*
X186640Y453261D01*
X187062Y452839D01*
X187613Y452611D01*
X188210D01*
X188762Y452839D01*
X189183Y453261D01*
X189412Y453813D01*
Y454409D01*
X189183Y454961D01*
X188762Y455383D01*
X188210Y455611D01*
D02*
G37*
G36*
X179298Y452000D02*
X178702D01*
X178150Y451772D01*
X177728Y451350D01*
X177500Y450798D01*
Y450202D01*
X177728Y449650D01*
X178150Y449228D01*
X178702Y449000D01*
X179298D01*
X179850Y449228D01*
X180272Y449650D01*
X180500Y450202D01*
Y450798D01*
X180272Y451350D01*
X179850Y451772D01*
X179298Y452000D01*
D02*
G37*
G36*
X149298Y451000D02*
X148702D01*
X148150Y450772D01*
X147728Y450350D01*
X147500Y449798D01*
Y449202D01*
X147728Y448650D01*
X148150Y448228D01*
X148702Y448000D01*
X149298D01*
X149850Y448228D01*
X150272Y448650D01*
X150500Y449202D01*
Y449798D01*
X150272Y450350D01*
X149850Y450772D01*
X149298Y451000D01*
D02*
G37*
G36*
X188145Y450507D02*
X187548D01*
X186997Y450279D01*
X186575Y449857D01*
X186346Y449306D01*
Y448709D01*
X186575Y448158D01*
X186997Y447736D01*
X187548Y447507D01*
X188145D01*
X188696Y447736D01*
X189118Y448158D01*
X189346Y448709D01*
Y449306D01*
X189118Y449857D01*
X188696Y450279D01*
X188145Y450507D01*
D02*
G37*
G36*
X139298Y450500D02*
X138702D01*
X138150Y450272D01*
X137728Y449850D01*
X137500Y449298D01*
Y448702D01*
X137728Y448150D01*
X138150Y447728D01*
X138702Y447500D01*
X139298D01*
X139850Y447728D01*
X140272Y448150D01*
X140500Y448702D01*
Y449298D01*
X140272Y449850D01*
X139850Y450272D01*
X139298Y450500D01*
D02*
G37*
G36*
X206335Y449657D02*
X205738D01*
X205187Y449428D01*
X204765Y449006D01*
X204537Y448455D01*
Y447858D01*
X204765Y447307D01*
X205187Y446885D01*
X205738Y446657D01*
X206335D01*
X206886Y446885D01*
X207308Y447307D01*
X207537Y447858D01*
Y448455D01*
X207308Y449006D01*
X206886Y449428D01*
X206335Y449657D01*
D02*
G37*
G36*
X217798Y449500D02*
X217202D01*
X216650Y449272D01*
X216228Y448850D01*
X216000Y448298D01*
Y447702D01*
X216228Y447150D01*
X216650Y446728D01*
X217202Y446500D01*
X217798D01*
X218350Y446728D01*
X218772Y447150D01*
X219000Y447702D01*
Y448298D01*
X218772Y448850D01*
X218350Y449272D01*
X217798Y449500D01*
D02*
G37*
G36*
X197698Y449460D02*
X197101D01*
X196550Y449232D01*
X196128Y448810D01*
X195900Y448259D01*
Y447662D01*
X196128Y447111D01*
X196550Y446689D01*
X197101Y446460D01*
X197698D01*
X198249Y446689D01*
X198671Y447111D01*
X198900Y447662D01*
Y448259D01*
X198671Y448810D01*
X198249Y449232D01*
X197698Y449460D01*
D02*
G37*
G36*
X211112Y449329D02*
X210515D01*
X209964Y449101D01*
X209542Y448679D01*
X209313Y448128D01*
Y447531D01*
X209542Y446980D01*
X209964Y446558D01*
X210515Y446329D01*
X211112D01*
X211663Y446558D01*
X212085Y446980D01*
X212313Y447531D01*
Y448128D01*
X212085Y448679D01*
X211663Y449101D01*
X211112Y449329D01*
D02*
G37*
G36*
X127570Y449002D02*
X126973D01*
X126422Y448773D01*
X126000Y448351D01*
X125772Y447800D01*
Y447203D01*
X126000Y446652D01*
X126422Y446230D01*
X126973Y446002D01*
X127570D01*
X128121Y446230D01*
X128543Y446652D01*
X128772Y447203D01*
Y447800D01*
X128543Y448351D01*
X128121Y448773D01*
X127570Y449002D01*
D02*
G37*
G36*
X221712Y448086D02*
X221115D01*
X220564Y447858D01*
X220142Y447436D01*
X219913Y446884D01*
Y446288D01*
X220142Y445737D01*
X220564Y445315D01*
X221115Y445086D01*
X221712D01*
X222263Y445315D01*
X222685Y445737D01*
X222913Y446288D01*
Y446884D01*
X222685Y447436D01*
X222263Y447858D01*
X221712Y448086D01*
D02*
G37*
G36*
X210298Y441500D02*
X209702D01*
X209150Y441272D01*
X209000Y441121D01*
X208850Y441272D01*
X208298Y441500D01*
X207702D01*
X207150Y441272D01*
X207000Y441121D01*
X206850Y441272D01*
X206298Y441500D01*
X205702D01*
X205150Y441272D01*
X205000Y441121D01*
X204850Y441272D01*
X204298Y441500D01*
X203702D01*
X203150Y441272D01*
X203000Y441121D01*
X202850Y441272D01*
X202298Y441500D01*
X201702D01*
X201150Y441272D01*
X201000Y441121D01*
X200850Y441272D01*
X200298Y441500D01*
X199702D01*
X199150Y441272D01*
X199000Y441121D01*
X198850Y441272D01*
X198298Y441500D01*
X197702D01*
X197150Y441272D01*
X197000Y441121D01*
X196850Y441272D01*
X196298Y441500D01*
X195702D01*
X195150Y441272D01*
X195000Y441121D01*
X194850Y441272D01*
X194298Y441500D01*
X193702D01*
X193150Y441272D01*
X193000Y441121D01*
X192850Y441272D01*
X192298Y441500D01*
X191702D01*
X191150Y441272D01*
X191000Y441121D01*
X190850Y441272D01*
X190298Y441500D01*
X189702D01*
X189150Y441272D01*
X189000Y441121D01*
X188850Y441272D01*
X188298Y441500D01*
X187702D01*
X187150Y441272D01*
X186728Y440850D01*
X186500Y440298D01*
Y439751D01*
X186340Y439574D01*
X186093Y439378D01*
X185798Y439500D01*
X185202D01*
X184650Y439272D01*
X184228Y438850D01*
X184042Y438399D01*
X183798Y438500D01*
X183202D01*
X182650Y438272D01*
X182228Y437850D01*
X182000Y437298D01*
Y436702D01*
X181566Y436444D01*
X181150Y436272D01*
X180728Y435850D01*
X180500Y435298D01*
Y434702D01*
X180674Y434281D01*
X180650Y434272D01*
X180228Y433850D01*
X180000Y433298D01*
Y432702D01*
X180228Y432150D01*
X180379Y432000D01*
X180228Y431850D01*
X180000Y431298D01*
Y430702D01*
X180228Y430150D01*
X180379Y430000D01*
X180228Y429850D01*
X180000Y429298D01*
Y428702D01*
X180228Y428150D01*
X180629Y427750D01*
X180228Y427350D01*
X180000Y426798D01*
Y426202D01*
X180228Y425650D01*
X180650Y425228D01*
X181202Y425000D01*
X181798D01*
X182000Y425083D01*
X182500Y424749D01*
Y424702D01*
X182728Y424150D01*
X183150Y423728D01*
X183702Y423500D01*
X184298D01*
X184593Y423622D01*
X184840Y423426D01*
X185000Y423249D01*
Y422702D01*
X185228Y422150D01*
X185650Y421728D01*
X186202Y421500D01*
X186798D01*
X187350Y421728D01*
X187772Y422150D01*
X187855Y422351D01*
X188110Y422677D01*
X188458Y422601D01*
X188702Y422500D01*
X189298D01*
X189850Y422728D01*
X190272Y423150D01*
X190500Y423702D01*
Y424298D01*
X190272Y424850D01*
X189850Y425272D01*
X189298Y425500D01*
X188702D01*
X188458Y425399D01*
X188272Y425850D01*
X187850Y426272D01*
X187298Y426500D01*
X186702D01*
X186150Y426272D01*
X185788Y425909D01*
X185500Y425876D01*
X185235Y425907D01*
X184931Y426310D01*
X185272Y426650D01*
X185500Y427202D01*
Y427798D01*
X185272Y428350D01*
X184871Y428750D01*
X185272Y429150D01*
X185500Y429702D01*
Y430298D01*
X185272Y430850D01*
X184871Y431250D01*
X185272Y431650D01*
X185500Y432202D01*
Y432798D01*
X185416Y433000D01*
X185751Y433500D01*
X185798D01*
X186350Y433728D01*
X186772Y434150D01*
X187000Y434702D01*
Y434795D01*
X187500Y435124D01*
X187516Y435118D01*
X187545Y435093D01*
X187728Y434650D01*
X188150Y434228D01*
X188702Y434000D01*
X189298D01*
X189850Y434228D01*
X190000Y434379D01*
X190150Y434228D01*
X190702Y434000D01*
X191298D01*
X191850Y434228D01*
X192000Y434379D01*
X192150Y434228D01*
X192702Y434000D01*
X193298D01*
X193850Y434228D01*
X194000Y434379D01*
X194150Y434228D01*
X194702Y434000D01*
X195298D01*
X195850Y434228D01*
X196000Y434379D01*
X196150Y434228D01*
X196702Y434000D01*
X197298D01*
X197850Y434228D01*
X198000Y434379D01*
X198150Y434228D01*
X198702Y434000D01*
X199298D01*
X199850Y434228D01*
X200000Y434379D01*
X200150Y434228D01*
X200702Y434000D01*
X201298D01*
X201850Y434228D01*
X202000Y434379D01*
X202150Y434228D01*
X202702Y434000D01*
X203298D01*
X203850Y434228D01*
X204000Y434379D01*
X204150Y434228D01*
X204702Y434000D01*
X205298D01*
X205850Y434228D01*
X206000Y434379D01*
X206150Y434228D01*
X206702Y434000D01*
X207298D01*
X207850Y434228D01*
X208000Y434379D01*
X208150Y434228D01*
X208702Y434000D01*
X209298D01*
X209850Y434228D01*
X210000Y434379D01*
X210150Y434228D01*
X210702Y434000D01*
X211298D01*
X211850Y434228D01*
X212272Y434650D01*
X212366Y434879D01*
X212544Y435195D01*
X212970Y435129D01*
X213146Y435056D01*
X213743D01*
X214294Y435284D01*
X214716Y435706D01*
X214944Y436257D01*
Y436854D01*
X214716Y437405D01*
X214294Y437827D01*
X213743Y438056D01*
X213146D01*
X212947Y437973D01*
X212791Y438052D01*
X212500Y438329D01*
Y438798D01*
X212272Y439350D01*
X211850Y439772D01*
X211500Y439917D01*
Y440298D01*
X211272Y440850D01*
X210850Y441272D01*
X210298Y441500D01*
D02*
G37*
G36*
X177298Y444000D02*
X176702D01*
X176150Y443772D01*
X175728Y443350D01*
X175500Y442798D01*
Y442202D01*
X175728Y441650D01*
X176150Y441228D01*
X176702Y441000D01*
X177298D01*
X177850Y441228D01*
X178272Y441650D01*
X178500Y442202D01*
Y442798D01*
X178272Y443350D01*
X177850Y443772D01*
X177298Y444000D01*
D02*
G37*
G36*
X127797Y442415D02*
X127200D01*
X126649Y442187D01*
X126227Y441765D01*
X125999Y441214D01*
Y440617D01*
X126227Y440066D01*
X126649Y439644D01*
X127200Y439415D01*
X127797D01*
X128348Y439644D01*
X128770Y440066D01*
X128999Y440617D01*
Y441214D01*
X128770Y441765D01*
X128348Y442187D01*
X127797Y442415D01*
D02*
G37*
G36*
X139298Y442000D02*
X138702D01*
X138150Y441772D01*
X137728Y441350D01*
X137500Y440798D01*
Y440202D01*
X137728Y439650D01*
X138150Y439228D01*
X138702Y439000D01*
X139298D01*
X139850Y439228D01*
X140272Y439650D01*
X140500Y440202D01*
Y440798D01*
X140272Y441350D01*
X139850Y441772D01*
X139298Y442000D01*
D02*
G37*
G36*
X274798Y441500D02*
X274202D01*
X273650Y441272D01*
X273228Y440850D01*
X273000Y440298D01*
Y439702D01*
X273228Y439150D01*
X273650Y438728D01*
X274202Y438500D01*
X274798D01*
X275350Y438728D01*
X275772Y439150D01*
X276000Y439702D01*
Y440298D01*
X275772Y440850D01*
X275350Y441272D01*
X274798Y441500D01*
D02*
G37*
G36*
X218743Y443056D02*
X218146D01*
X217595Y442827D01*
X217173Y442405D01*
X216944Y441854D01*
Y441596D01*
X216847Y441231D01*
X216482Y441134D01*
X216224D01*
X215673Y440905D01*
X215251Y440483D01*
X215022Y439932D01*
Y439335D01*
X215251Y438784D01*
X215673Y438362D01*
X216224Y438134D01*
X216821D01*
X217372Y438362D01*
X217794Y438784D01*
X218022Y439335D01*
Y439594D01*
X218120Y439958D01*
X218484Y440056D01*
X218743D01*
X219294Y440284D01*
X219716Y440706D01*
X219944Y441257D01*
Y441854D01*
X219716Y442405D01*
X219294Y442827D01*
X218743Y443056D01*
D02*
G37*
G36*
X148798Y439500D02*
X148202D01*
X147650Y439272D01*
X147228Y438850D01*
X147000Y438298D01*
Y437702D01*
X147228Y437150D01*
X147650Y436728D01*
X148202Y436500D01*
X148798D01*
X149350Y436728D01*
X149772Y437150D01*
X150000Y437702D01*
Y438298D01*
X149772Y438850D01*
X149350Y439272D01*
X148798Y439500D01*
D02*
G37*
G36*
X176798Y439000D02*
X176202D01*
X175650Y438772D01*
X175228Y438350D01*
X175000Y437798D01*
Y437202D01*
X175228Y436650D01*
X175650Y436228D01*
X176202Y436000D01*
X176798D01*
X177350Y436228D01*
X177772Y436650D01*
X178000Y437202D01*
Y437798D01*
X177772Y438350D01*
X177350Y438772D01*
X176798Y439000D01*
D02*
G37*
G36*
X221454Y438767D02*
X220857D01*
X220306Y438538D01*
X219884Y438116D01*
X219655Y437565D01*
Y436968D01*
X219884Y436417D01*
X220306Y435995D01*
X220857Y435767D01*
X221454D01*
X222005Y435995D01*
X222427Y436417D01*
X222655Y436968D01*
Y437565D01*
X222427Y438116D01*
X222005Y438538D01*
X221454Y438767D01*
D02*
G37*
G36*
X136298Y434500D02*
X135702D01*
X135150Y434272D01*
X134728Y433850D01*
X134500Y433298D01*
Y432702D01*
X134728Y432150D01*
X135150Y431728D01*
X135702Y431500D01*
X136298D01*
X136850Y431728D01*
X137272Y432150D01*
X137500Y432702D01*
Y433298D01*
X137272Y433850D01*
X136850Y434272D01*
X136298Y434500D01*
D02*
G37*
G36*
X126798Y434000D02*
X126202D01*
X125650Y433772D01*
X125228Y433350D01*
X125000Y432798D01*
Y432202D01*
X125228Y431650D01*
X125650Y431228D01*
X126202Y431000D01*
X126798D01*
X127350Y431228D01*
X127772Y431650D01*
X128000Y432202D01*
Y432798D01*
X127772Y433350D01*
X127350Y433772D01*
X126798Y434000D01*
D02*
G37*
G36*
X150298Y429500D02*
X149702D01*
X149150Y429272D01*
X148728Y428850D01*
X148500Y428298D01*
Y427702D01*
X148728Y427150D01*
X149150Y426728D01*
X149702Y426500D01*
X150298D01*
X150850Y426728D01*
X151272Y427150D01*
X151500Y427702D01*
Y428298D01*
X151272Y428850D01*
X150850Y429272D01*
X150298Y429500D01*
D02*
G37*
G36*
X196298Y426500D02*
X195702D01*
X195150Y426272D01*
X194728Y425850D01*
X194719Y425826D01*
X194298Y426000D01*
X193702D01*
X193150Y425772D01*
X192728Y425350D01*
X192500Y424798D01*
Y424202D01*
X192728Y423650D01*
X192879Y423500D01*
X192728Y423350D01*
X192500Y422798D01*
Y422202D01*
X192728Y421650D01*
X192879Y421500D01*
X192728Y421350D01*
X192500Y420798D01*
Y420202D01*
X192728Y419650D01*
X192525Y419146D01*
X192228Y418850D01*
X192000Y418298D01*
Y417702D01*
X192228Y417150D01*
X192591Y416788D01*
X192624Y416500D01*
X192591Y416212D01*
X192228Y415850D01*
X192000Y415298D01*
Y414702D01*
X192228Y414150D01*
X192444Y413935D01*
X192348Y413353D01*
X192150Y413272D01*
X191728Y412850D01*
X191703Y412789D01*
X191538Y412857D01*
X190941D01*
X190390Y412629D01*
X189968Y412207D01*
X189740Y411656D01*
Y411589D01*
X189597Y411473D01*
X189240Y411317D01*
X188798Y411500D01*
X188202D01*
X187650Y411272D01*
X187228Y410850D01*
X187042Y410399D01*
X186798Y410500D01*
X186202D01*
X185650Y410272D01*
X185273Y410347D01*
X185272Y410350D01*
X184850Y410772D01*
X184298Y411000D01*
X183702D01*
X183150Y410772D01*
X182728Y410350D01*
X182500Y409798D01*
Y409202D01*
X182728Y408650D01*
X183150Y408228D01*
X183702Y408000D01*
X184298D01*
X184850Y408228D01*
X185227Y408153D01*
X185228Y408150D01*
X185629Y407750D01*
X185228Y407350D01*
X185146Y407152D01*
X184565Y407056D01*
X184350Y407272D01*
X183798Y407500D01*
X183202D01*
X182650Y407272D01*
X182228Y406850D01*
X182000Y406298D01*
Y405702D01*
X182228Y405150D01*
X182650Y404728D01*
X183202Y404500D01*
X183798D01*
X184350Y404728D01*
X184772Y405150D01*
X184853Y405348D01*
X185434Y405444D01*
X185525Y405354D01*
X185728Y404850D01*
X185500Y404298D01*
X185020Y404121D01*
X184889D01*
X184338Y403892D01*
X183916Y403470D01*
X183688Y402919D01*
Y402322D01*
X183380Y402065D01*
X183000Y402458D01*
Y402798D01*
X182772Y403350D01*
X182350Y403772D01*
X181798Y404000D01*
X181202D01*
X180650Y403772D01*
X180228Y403350D01*
X179765Y403307D01*
X179298Y403500D01*
X178751D01*
X178574Y403660D01*
X178378Y403907D01*
X178500Y404202D01*
Y404798D01*
X178272Y405350D01*
X177850Y405772D01*
X177298Y406000D01*
X176702D01*
X176150Y405772D01*
X175728Y405350D01*
X175500Y404798D01*
Y404202D01*
X175728Y403650D01*
X175525Y403146D01*
X175288Y402909D01*
X175000Y402876D01*
X174735Y402907D01*
X174431Y403310D01*
X174772Y403650D01*
X175000Y404202D01*
Y404798D01*
X174772Y405350D01*
X174350Y405772D01*
X173798Y406000D01*
X173202D01*
X172650Y405772D01*
X172523Y405644D01*
X172012Y405569D01*
X171590Y405991D01*
X171039Y406219D01*
X170442D01*
X169891Y405991D01*
X169469Y405569D01*
X169241Y405018D01*
Y404421D01*
X169469Y403870D01*
X169562Y403776D01*
X169650Y403272D01*
X169228Y402850D01*
X169000Y402298D01*
Y401702D01*
X169228Y401150D01*
X169591Y400788D01*
X169624Y400500D01*
X169591Y400212D01*
X169228Y399850D01*
X169000Y399298D01*
Y398702D01*
X169228Y398150D01*
X169650Y397728D01*
X170202Y397500D01*
X170798D01*
X171350Y397728D01*
X171712Y398091D01*
X172000Y398124D01*
X172288Y398091D01*
X172650Y397728D01*
X173202Y397500D01*
X173798D01*
X174350Y397728D01*
X174712Y398091D01*
X175000Y398124D01*
X175288Y398091D01*
X175650Y397728D01*
X176202Y397500D01*
X176798D01*
X177350Y397728D01*
X177750Y398129D01*
X178150Y397728D01*
X178702Y397500D01*
X179298D01*
X179850Y397728D01*
X180250Y398129D01*
X180650Y397728D01*
X181202Y397500D01*
X181798D01*
X182350Y397728D01*
X182772Y398150D01*
X183000Y398702D01*
X183207Y398840D01*
X183474Y398729D01*
X184071D01*
X184622Y398957D01*
X185044Y399379D01*
X185272Y399931D01*
Y400527D01*
X185234Y400621D01*
X185486Y401121D01*
X186037Y401349D01*
X186459Y401771D01*
X186688Y402322D01*
X187167Y402500D01*
X187298D01*
X187850Y402728D01*
X188272Y403150D01*
X188500Y403702D01*
Y404298D01*
X188272Y404850D01*
X187975Y405146D01*
X187772Y405650D01*
X188000Y406202D01*
Y406798D01*
X187772Y407350D01*
X187371Y407750D01*
X187772Y408150D01*
X187958Y408601D01*
X188202Y408500D01*
X188798D01*
X189350Y408728D01*
X189772Y409150D01*
X190000Y409702D01*
Y409768D01*
X190143Y409884D01*
X190500Y410040D01*
X190941Y409857D01*
X191538D01*
X192089Y410085D01*
X192511Y410507D01*
X192537Y410568D01*
X192702Y410500D01*
X193298D01*
X193850Y410728D01*
X194272Y411150D01*
X194500Y411702D01*
Y412298D01*
X194272Y412850D01*
X194056Y413065D01*
X194152Y413647D01*
X194350Y413728D01*
X194772Y414150D01*
X195000Y414702D01*
Y415298D01*
X194772Y415850D01*
X194409Y416212D01*
X194376Y416500D01*
X194409Y416788D01*
X194772Y417150D01*
X195000Y417702D01*
Y418298D01*
X194772Y418850D01*
X194967Y419335D01*
X195327Y419655D01*
X195702Y419500D01*
X196298D01*
X196542Y419601D01*
X196728Y419150D01*
X197150Y418728D01*
X197702Y418500D01*
X198298D01*
X198850Y418728D01*
X199272Y419150D01*
X199500Y419702D01*
Y420298D01*
X199272Y420850D01*
X199121Y421000D01*
X199272Y421150D01*
X199500Y421702D01*
Y422298D01*
X199272Y422850D01*
X198871Y423250D01*
X199272Y423650D01*
X199500Y424202D01*
Y424798D01*
X199272Y425350D01*
X198850Y425772D01*
X198298Y426000D01*
X197702D01*
X197282Y425826D01*
X197272Y425850D01*
X196850Y426272D01*
X196298Y426500D01*
D02*
G37*
G36*
X283298Y428500D02*
X282702D01*
X282150Y428272D01*
X281728Y427850D01*
X281500Y427298D01*
Y426702D01*
X281728Y426150D01*
X282150Y425728D01*
X282702Y425500D01*
X283298D01*
X283850Y425728D01*
X284272Y426150D01*
X284500Y426702D01*
Y427298D01*
X284272Y427850D01*
X283850Y428272D01*
X283298Y428500D01*
D02*
G37*
G36*
X160798Y437500D02*
X160202D01*
X159650Y437272D01*
X159228Y436850D01*
X159000Y436298D01*
Y435702D01*
X159228Y435150D01*
X159025Y434646D01*
X158728Y434350D01*
X158500Y433798D01*
Y433202D01*
X158583Y433000D01*
X158249Y432500D01*
X158202D01*
X157650Y432272D01*
X157228Y431850D01*
X157000Y431298D01*
Y430702D01*
X157228Y430150D01*
X157650Y429728D01*
X157848Y429646D01*
X157944Y429066D01*
X157728Y428850D01*
X157500Y428298D01*
Y427702D01*
X157728Y427150D01*
X158129Y426750D01*
X157728Y426350D01*
X157500Y425798D01*
Y425202D01*
X157728Y424650D01*
X158150Y424228D01*
X158702Y424000D01*
X159298D01*
X159850Y424228D01*
X160272Y424650D01*
X160500Y425202D01*
Y425798D01*
X160272Y426350D01*
X159871Y426750D01*
X160272Y427150D01*
X160500Y427702D01*
Y428298D01*
X160272Y428850D01*
X159850Y429272D01*
X159652Y429354D01*
X159556Y429935D01*
X159772Y430150D01*
X160000Y430702D01*
Y431298D01*
X159916Y431500D01*
X160251Y432000D01*
X160298D01*
X160850Y432228D01*
X161272Y432650D01*
X161500Y433202D01*
Y433798D01*
X161272Y434350D01*
X161475Y434854D01*
X161772Y435150D01*
X162000Y435702D01*
Y436298D01*
X161772Y436850D01*
X161350Y437272D01*
X160798Y437500D01*
D02*
G37*
G36*
X154298Y427000D02*
X153702D01*
X153150Y426772D01*
X152728Y426350D01*
X152500Y425798D01*
Y425202D01*
X152728Y424650D01*
X153150Y424228D01*
X153702Y424000D01*
X154298D01*
X154850Y424228D01*
X155272Y424650D01*
X155500Y425202D01*
Y425798D01*
X155272Y426350D01*
X154850Y426772D01*
X154298Y427000D01*
D02*
G37*
G36*
X127298D02*
X126702D01*
X126150Y426772D01*
X125728Y426350D01*
X125500Y425798D01*
Y425202D01*
X125728Y424650D01*
X126150Y424228D01*
X126702Y424000D01*
X127298D01*
X127850Y424228D01*
X128272Y424650D01*
X128500Y425202D01*
Y425798D01*
X128272Y426350D01*
X127850Y426772D01*
X127298Y427000D01*
D02*
G37*
G36*
X141798Y426000D02*
X141202D01*
X140650Y425772D01*
X140228Y425350D01*
X140000Y424798D01*
Y424202D01*
X140228Y423650D01*
X140650Y423228D01*
X141202Y423000D01*
X141798D01*
X142350Y423228D01*
X142772Y423650D01*
X143000Y424202D01*
Y424798D01*
X142772Y425350D01*
X142350Y425772D01*
X141798Y426000D01*
D02*
G37*
G36*
X285298Y423500D02*
X284702D01*
X284150Y423272D01*
X283728Y422850D01*
X283500Y422298D01*
Y421702D01*
X283728Y421150D01*
X284150Y420728D01*
X284702Y420500D01*
X285298D01*
X285850Y420728D01*
X286272Y421150D01*
X286500Y421702D01*
Y422298D01*
X286272Y422850D01*
X285850Y423272D01*
X285298Y423500D01*
D02*
G37*
G36*
X210298Y421500D02*
X209702D01*
X209150Y421272D01*
X208728Y420850D01*
X208500Y420298D01*
Y419702D01*
X208728Y419150D01*
X209150Y418728D01*
X209702Y418500D01*
X210298D01*
X210850Y418728D01*
X211272Y419150D01*
X211500Y419702D01*
Y420298D01*
X211272Y420850D01*
X210850Y421272D01*
X210298Y421500D01*
D02*
G37*
G36*
X127298Y420000D02*
X126702D01*
X126150Y419772D01*
X125728Y419350D01*
X125500Y418798D01*
Y418202D01*
X125728Y417650D01*
X126150Y417228D01*
X126702Y417000D01*
X127298D01*
X127850Y417228D01*
X128272Y417650D01*
X128500Y418202D01*
Y418798D01*
X128272Y419350D01*
X127850Y419772D01*
X127298Y420000D01*
D02*
G37*
G36*
X173298Y417000D02*
X172702D01*
X172150Y416772D01*
X171728Y416350D01*
X171542Y415899D01*
X171298Y416000D01*
X170702D01*
X170150Y415772D01*
X169788Y415409D01*
X169500Y415376D01*
X169212Y415409D01*
X168850Y415772D01*
X168298Y416000D01*
X167702D01*
X167150Y415772D01*
X166773Y415847D01*
X166772Y415850D01*
X166350Y416272D01*
X165798Y416500D01*
X165202D01*
X164650Y416272D01*
X164228Y415850D01*
X164000Y415298D01*
Y414702D01*
X164228Y414150D01*
X164650Y413728D01*
X165202Y413500D01*
X165798D01*
X166350Y413728D01*
X166727Y413653D01*
X166728Y413650D01*
X167150Y413228D01*
X167702Y413000D01*
X168298D01*
X168850Y413228D01*
X169212Y413591D01*
X169500Y413624D01*
X169788Y413591D01*
X170150Y413228D01*
X170702Y413000D01*
X171298D01*
X171850Y413228D01*
X172272Y413650D01*
X172458Y414101D01*
X172702Y414000D01*
X173298D01*
X173850Y414228D01*
X174272Y414650D01*
X174500Y415202D01*
Y415798D01*
X174272Y416350D01*
X173850Y416772D01*
X173298Y417000D01*
D02*
G37*
G36*
X158798Y423500D02*
X158202D01*
X157650Y423272D01*
X157228Y422850D01*
X157000Y422298D01*
Y421702D01*
X157228Y421150D01*
X157650Y420728D01*
X157848Y420646D01*
X157944Y420065D01*
X157728Y419850D01*
X157500Y419298D01*
Y418702D01*
X157728Y418150D01*
X158091Y417788D01*
X158124Y417500D01*
X158091Y417212D01*
X157728Y416850D01*
X157500Y416298D01*
Y415702D01*
X157728Y415150D01*
X158150Y414728D01*
X158702Y414500D01*
X159298D01*
X159850Y414728D01*
X160272Y415150D01*
X160500Y415702D01*
Y416298D01*
X160272Y416850D01*
X159909Y417212D01*
X159876Y417500D01*
X159909Y417788D01*
X160272Y418150D01*
X160500Y418702D01*
Y419298D01*
X160272Y419850D01*
X159850Y420272D01*
X159652Y420354D01*
X159556Y420934D01*
X159772Y421150D01*
X160000Y421702D01*
Y422298D01*
X159772Y422850D01*
X159350Y423272D01*
X158798Y423500D01*
D02*
G37*
G36*
X139798Y417500D02*
X139202D01*
X138650Y417272D01*
X138228Y416850D01*
X138000Y416298D01*
Y415702D01*
X138228Y415150D01*
X138650Y414728D01*
X139202Y414500D01*
X139798D01*
X140350Y414728D01*
X140772Y415150D01*
X141000Y415702D01*
Y416298D01*
X140772Y416850D01*
X140350Y417272D01*
X139798Y417500D01*
D02*
G37*
G36*
X210574Y417194D02*
X209977D01*
X209426Y416966D01*
X209004Y416544D01*
X208776Y415993D01*
Y415396D01*
X209004Y414845D01*
X209426Y414423D01*
X209977Y414194D01*
X210574D01*
X211125Y414423D01*
X211547Y414845D01*
X211776Y415396D01*
Y415993D01*
X211547Y416544D01*
X211125Y416966D01*
X210574Y417194D01*
D02*
G37*
G36*
X128251Y415161D02*
X127655D01*
X127103Y414932D01*
X126681Y414511D01*
X126453Y413959D01*
Y413363D01*
X126681Y412811D01*
X127103Y412389D01*
X127655Y412161D01*
X128251D01*
X128803Y412389D01*
X129225Y412811D01*
X129453Y413363D01*
Y413959D01*
X129225Y414511D01*
X128803Y414932D01*
X128251Y415161D01*
D02*
G37*
G36*
X219903Y414233D02*
X219306D01*
X218755Y414005D01*
X218333Y413583D01*
X218104Y413031D01*
Y412434D01*
X218333Y411883D01*
X218755Y411461D01*
X219306Y411233D01*
X219903D01*
X220454Y411461D01*
X220876Y411883D01*
X221104Y412434D01*
Y413031D01*
X220876Y413583D01*
X220454Y414005D01*
X219903Y414233D01*
D02*
G37*
G36*
X177298Y410500D02*
X176702D01*
X176150Y410272D01*
X175728Y409850D01*
X175542Y409399D01*
X175298Y409500D01*
X174702D01*
X174150Y409272D01*
X174000Y409121D01*
X173850Y409272D01*
X173298Y409500D01*
X172702D01*
X172458Y409399D01*
X172272Y409850D01*
X171850Y410272D01*
X171298Y410500D01*
X170702D01*
X170150Y410272D01*
X169728Y409850D01*
X169500Y409298D01*
Y408702D01*
X169728Y408150D01*
X170150Y407728D01*
X170702Y407500D01*
X171298D01*
X171542Y407601D01*
X171728Y407150D01*
X172150Y406728D01*
X172702Y406500D01*
X173298D01*
X173850Y406728D01*
X174000Y406879D01*
X174150Y406728D01*
X174702Y406500D01*
X175298D01*
X175850Y406728D01*
X176272Y407150D01*
X176458Y407601D01*
X176702Y407500D01*
X177298D01*
X177850Y407728D01*
X178272Y408150D01*
X178500Y408702D01*
Y409298D01*
X178272Y409850D01*
X177850Y410272D01*
X177298Y410500D01*
D02*
G37*
G36*
X211018Y411568D02*
X210422D01*
X209870Y411339D01*
X209448Y410917D01*
X209220Y410366D01*
Y409769D01*
X209448Y409218D01*
X209870Y408796D01*
X210422Y408568D01*
X211018D01*
X211570Y408796D01*
X211992Y409218D01*
X212220Y409769D01*
Y410366D01*
X211992Y410917D01*
X211570Y411339D01*
X211018Y411568D01*
D02*
G37*
G36*
X252798Y408500D02*
X252202D01*
X251650Y408272D01*
X251500Y408121D01*
X251350Y408272D01*
X250798Y408500D01*
X250202D01*
X249650Y408272D01*
X249500Y408121D01*
X249350Y408272D01*
X248798Y408500D01*
X248202D01*
X247650Y408272D01*
X247500Y408121D01*
X247350Y408272D01*
X246798Y408500D01*
X246202D01*
X245650Y408272D01*
X245228Y407850D01*
X245000Y407298D01*
Y406702D01*
X245228Y406150D01*
X245650Y405728D01*
X246202Y405500D01*
X246798D01*
X247350Y405728D01*
X247500Y405879D01*
X247650Y405728D01*
X248202Y405500D01*
X248798D01*
X249350Y405728D01*
X249500Y405879D01*
X249650Y405728D01*
X250202Y405500D01*
X250798D01*
X251350Y405728D01*
X251500Y405879D01*
X251650Y405728D01*
X252202Y405500D01*
X252798D01*
X253350Y405728D01*
X253772Y406150D01*
X254000Y406702D01*
Y407298D01*
X253772Y407850D01*
X253350Y408272D01*
X252798Y408500D01*
D02*
G37*
G36*
X160798Y412000D02*
X160202D01*
X159650Y411772D01*
X159228Y411350D01*
X159000Y410798D01*
Y410202D01*
X159228Y409650D01*
X159650Y409228D01*
X160043Y409065D01*
X160000Y408961D01*
Y408364D01*
X160025Y408303D01*
X159601Y408020D01*
X159350Y408272D01*
X158798Y408500D01*
X158202D01*
X157650Y408272D01*
X157500Y408121D01*
X157000Y408298D01*
X156772Y408850D01*
X156350Y409272D01*
X155798Y409500D01*
X155202D01*
X154650Y409272D01*
X154228Y408850D01*
X154000Y408298D01*
Y407702D01*
X154228Y407150D01*
X154591Y406788D01*
X154624Y406500D01*
X154591Y406212D01*
X154228Y405850D01*
X154000Y405298D01*
Y404702D01*
X154228Y404150D01*
X154629Y403750D01*
X154228Y403350D01*
X154000Y402798D01*
Y402202D01*
X154228Y401650D01*
X154650Y401228D01*
X155202Y401000D01*
X155798D01*
X156042Y401101D01*
X156191Y401134D01*
X156364Y401000D01*
X156381Y400379D01*
X156351Y400355D01*
X156150Y400272D01*
X155728Y399850D01*
X155500Y399298D01*
Y398702D01*
X155728Y398150D01*
X156150Y397728D01*
X156702Y397500D01*
X157298D01*
X157850Y397728D01*
X158133Y398011D01*
X158635Y397968D01*
X158707Y397932D01*
X158733Y397867D01*
X159155Y397446D01*
X159707Y397217D01*
X160303D01*
X160855Y397446D01*
X161277Y397867D01*
X161505Y398419D01*
Y399015D01*
X161277Y399567D01*
X161305Y399710D01*
X161350Y399728D01*
X161772Y400150D01*
X162000Y400702D01*
Y401298D01*
X161772Y401850D01*
X161350Y402272D01*
X160798Y402500D01*
X160202D01*
X159650Y402272D01*
X159273Y402347D01*
X159272Y402350D01*
X158975Y402646D01*
X158772Y403150D01*
X159000Y403702D01*
Y404298D01*
X158772Y404850D01*
X158621Y405000D01*
X158798Y405500D01*
X159350Y405728D01*
X159772Y406150D01*
X160000Y406702D01*
Y407298D01*
X159975Y407359D01*
X160399Y407642D01*
X160650Y407391D01*
X161202Y407162D01*
X161798D01*
X162350Y407391D01*
X162772Y407813D01*
X163000Y408364D01*
Y408961D01*
X162772Y409512D01*
X162350Y409934D01*
X161957Y410097D01*
X162000Y410202D01*
Y410798D01*
X161772Y411350D01*
X161350Y411772D01*
X160798Y412000D01*
D02*
G37*
G36*
X127911Y408915D02*
X127314D01*
X126763Y408687D01*
X126341Y408265D01*
X126112Y407714D01*
Y407117D01*
X126341Y406565D01*
X126763Y406143D01*
X127314Y405915D01*
X127911D01*
X128462Y406143D01*
X128884Y406565D01*
X129112Y407117D01*
Y407714D01*
X128884Y408265D01*
X128462Y408687D01*
X127911Y408915D01*
D02*
G37*
G36*
X219310Y408902D02*
X218714D01*
X218162Y408674D01*
X217741Y408252D01*
X217512Y407701D01*
Y407104D01*
X217741Y406553D01*
X218162Y406131D01*
X218714Y405902D01*
X219310D01*
X219862Y406131D01*
X220284Y406553D01*
X220512Y407104D01*
Y407701D01*
X220284Y408252D01*
X219862Y408674D01*
X219310Y408902D01*
D02*
G37*
G36*
X138798Y408500D02*
X138202D01*
X137650Y408272D01*
X137228Y407850D01*
X137000Y407298D01*
Y406702D01*
X137228Y406150D01*
X137650Y405728D01*
X138202Y405500D01*
X138798D01*
X139350Y405728D01*
X139772Y406150D01*
X140000Y406702D01*
Y407298D01*
X139772Y407850D01*
X139350Y408272D01*
X138798Y408500D01*
D02*
G37*
G36*
X190464Y408172D02*
X189868D01*
X189316Y407943D01*
X188894Y407521D01*
X188666Y406970D01*
Y406373D01*
X188894Y405822D01*
X189316Y405400D01*
X189868Y405172D01*
X190464D01*
X191016Y405400D01*
X191438Y405822D01*
X191666Y406373D01*
Y406970D01*
X191438Y407521D01*
X191016Y407943D01*
X190464Y408172D01*
D02*
G37*
G36*
X180798Y410500D02*
X180202D01*
X179650Y410272D01*
X179228Y409850D01*
X179000Y409298D01*
Y408702D01*
X179228Y408150D01*
X179025Y407646D01*
X178728Y407350D01*
X178500Y406798D01*
Y406202D01*
X178728Y405650D01*
X179150Y405228D01*
X179702Y405000D01*
X180298D01*
X180850Y405228D01*
X181272Y405650D01*
X181500Y406202D01*
Y406798D01*
X181272Y407350D01*
X181475Y407854D01*
X181772Y408150D01*
X182000Y408702D01*
Y409298D01*
X181772Y409850D01*
X181350Y410272D01*
X180798Y410500D01*
D02*
G37*
G36*
X167818Y409782D02*
X167221D01*
X166670Y409554D01*
X166248Y409132D01*
X166019Y408581D01*
Y407984D01*
X166248Y407433D01*
X166307Y407373D01*
X166279Y406821D01*
X165857Y406399D01*
X165629Y405848D01*
Y405251D01*
X165857Y404699D01*
X166279Y404278D01*
X166831Y404049D01*
X167427D01*
X167979Y404278D01*
X168401Y404699D01*
X168629Y405251D01*
Y405848D01*
X168401Y406399D01*
X168341Y406458D01*
X168369Y407011D01*
X168791Y407433D01*
X169019Y407984D01*
Y408581D01*
X168791Y409132D01*
X168369Y409554D01*
X167818Y409782D01*
D02*
G37*
G36*
X146298Y405500D02*
X145702D01*
X145150Y405272D01*
X144728Y404850D01*
X144500Y404298D01*
Y403702D01*
X144728Y403150D01*
X145150Y402728D01*
X145702Y402500D01*
X146298D01*
X146850Y402728D01*
X147272Y403150D01*
X147500Y403702D01*
Y404298D01*
X147272Y404850D01*
X146850Y405272D01*
X146298Y405500D01*
D02*
G37*
G36*
X167298Y403500D02*
X166702D01*
X166150Y403272D01*
X165728Y402850D01*
X165500Y402298D01*
X165000Y402121D01*
X164850Y402272D01*
X164298Y402500D01*
X163702D01*
X163150Y402272D01*
X162728Y401850D01*
X162500Y401298D01*
Y400702D01*
X162728Y400150D01*
X163150Y399728D01*
X163702Y399500D01*
X164298D01*
X164850Y399728D01*
X165272Y400150D01*
X165345Y400328D01*
X165878Y400553D01*
X165996Y400117D01*
X165728Y399850D01*
X165500Y399298D01*
Y398702D01*
X165728Y398150D01*
X166150Y397728D01*
X166702Y397500D01*
X167298D01*
X167850Y397728D01*
X168272Y398150D01*
X168500Y398702D01*
Y399298D01*
X168272Y399850D01*
X167909Y400212D01*
X167876Y400500D01*
X167909Y400788D01*
X168272Y401150D01*
X168500Y401702D01*
Y402298D01*
X168272Y402850D01*
X167850Y403272D01*
X167298Y403500D01*
D02*
G37*
G36*
X207020Y403868D02*
X206424D01*
X205872Y403639D01*
X205450Y403218D01*
X205222Y402666D01*
Y402069D01*
X205450Y401518D01*
X205872Y401096D01*
X206424Y400868D01*
X207020D01*
X207572Y401096D01*
X207994Y401518D01*
X208222Y402069D01*
Y402666D01*
X207994Y403218D01*
X207572Y403639D01*
X207020Y403868D01*
D02*
G37*
G36*
X219459Y402979D02*
X218862D01*
X218310Y402751D01*
X217888Y402329D01*
X217660Y401778D01*
Y401181D01*
X217888Y400630D01*
X218310Y400208D01*
X218862Y399979D01*
X219459D01*
X220010Y400208D01*
X220432Y400630D01*
X220660Y401181D01*
Y401778D01*
X220432Y402329D01*
X220010Y402751D01*
X219459Y402979D01*
D02*
G37*
G36*
X127298Y402000D02*
X126702D01*
X126150Y401772D01*
X125728Y401350D01*
X125500Y400798D01*
Y400202D01*
X125728Y399650D01*
X126150Y399228D01*
X126702Y399000D01*
X127298D01*
X127850Y399228D01*
X128272Y399650D01*
X128500Y400202D01*
Y400798D01*
X128272Y401350D01*
X127850Y401772D01*
X127298Y402000D01*
D02*
G37*
G36*
X138591Y400499D02*
X137994D01*
X137443Y400270D01*
X137021Y399848D01*
X136792Y399297D01*
Y398700D01*
X137021Y398149D01*
X137443Y397727D01*
X137994Y397499D01*
X138591D01*
X139142Y397727D01*
X139564Y398149D01*
X139792Y398700D01*
Y399297D01*
X139564Y399848D01*
X139142Y400270D01*
X138591Y400499D01*
D02*
G37*
G36*
X219459Y399426D02*
X218862D01*
X218310Y399197D01*
X217888Y398775D01*
X217660Y398224D01*
Y397627D01*
X217888Y397076D01*
X218310Y396654D01*
X218862Y396426D01*
X219459D01*
X220010Y396654D01*
X220432Y397076D01*
X220660Y397627D01*
Y398224D01*
X220432Y398775D01*
X220010Y399197D01*
X219459Y399426D01*
D02*
G37*
G36*
X204298Y397000D02*
X203702D01*
X203150Y396772D01*
X202728Y396350D01*
X202500Y395798D01*
Y395202D01*
X202728Y394650D01*
X203150Y394228D01*
X203702Y394000D01*
X204298D01*
X204850Y394228D01*
X205272Y394650D01*
X205500Y395202D01*
Y395798D01*
X205272Y396350D01*
X204850Y396772D01*
X204298Y397000D01*
D02*
G37*
G36*
X164298Y395800D02*
X163702D01*
X163150Y395572D01*
X162728Y395150D01*
X162500Y394598D01*
Y394002D01*
X162728Y393450D01*
X163150Y393028D01*
X163702Y392800D01*
X164298D01*
X164850Y393028D01*
X165272Y393450D01*
X165500Y394002D01*
Y394598D01*
X165272Y395150D01*
X164850Y395572D01*
X164298Y395800D01*
D02*
G37*
G36*
X148976Y395428D02*
X148379D01*
X147828Y395199D01*
X147406Y394777D01*
X147178Y394226D01*
Y393629D01*
X147406Y393078D01*
X147828Y392656D01*
X148379Y392428D01*
X148976D01*
X149527Y392656D01*
X149949Y393078D01*
X150178Y393629D01*
Y394226D01*
X149949Y394777D01*
X149527Y395199D01*
X148976Y395428D01*
D02*
G37*
G36*
X128298Y394500D02*
X127702D01*
X127150Y394272D01*
X126728Y393850D01*
X126500Y393298D01*
Y392702D01*
X126728Y392150D01*
X127150Y391728D01*
X127702Y391500D01*
X128298D01*
X128850Y391728D01*
X129272Y392150D01*
X129500Y392702D01*
Y393298D01*
X129272Y393850D01*
X128850Y394272D01*
X128298Y394500D01*
D02*
G37*
G36*
X157712Y394391D02*
X157115D01*
X156564Y394163D01*
X156142Y393741D01*
X155914Y393190D01*
Y392593D01*
X156142Y392041D01*
X156564Y391620D01*
X157115Y391391D01*
X157712D01*
X158264Y391620D01*
X158686Y392041D01*
X158914Y392593D01*
Y393190D01*
X158686Y393741D01*
X158264Y394163D01*
X157712Y394391D01*
D02*
G37*
G36*
X174798Y390000D02*
X174202D01*
X173650Y389772D01*
X173228Y389350D01*
X173072Y388971D01*
X172538Y388953D01*
X172456Y389151D01*
X172034Y389573D01*
X171483Y389801D01*
X170886D01*
X170335Y389573D01*
X169913Y389151D01*
X169685Y388599D01*
Y388003D01*
X169913Y387451D01*
X170335Y387029D01*
X170886Y386801D01*
X171483D01*
X172034Y387029D01*
X172456Y387451D01*
X172613Y387829D01*
X173147Y387848D01*
X173228Y387650D01*
X173650Y387228D01*
X174202Y387000D01*
X174798D01*
X175350Y387228D01*
X175772Y387650D01*
X176000Y388202D01*
Y388798D01*
X175772Y389350D01*
X175350Y389772D01*
X174798Y390000D01*
D02*
G37*
G36*
X140298Y391000D02*
X139702D01*
X139150Y390772D01*
X138728Y390350D01*
X138500Y389798D01*
Y389202D01*
X138728Y388650D01*
X139150Y388228D01*
X139702Y388000D01*
X140298D01*
X140850Y388228D01*
X141272Y388650D01*
X141500Y389202D01*
Y389798D01*
X141272Y390350D01*
X140850Y390772D01*
X140298Y391000D01*
D02*
G37*
G36*
X218422Y390837D02*
X217825D01*
X217274Y390609D01*
X216852Y390187D01*
X216624Y389636D01*
Y389039D01*
X216852Y388488D01*
X217274Y388066D01*
X217825Y387837D01*
X218422D01*
X218973Y388066D01*
X219395Y388488D01*
X219624Y389039D01*
Y389636D01*
X219395Y390187D01*
X218973Y390609D01*
X218422Y390837D01*
D02*
G37*
G36*
X150013Y390689D02*
X149416D01*
X148864Y390461D01*
X148442Y390039D01*
X148214Y389488D01*
Y388891D01*
X148442Y388340D01*
X148864Y387918D01*
X149416Y387689D01*
X150013D01*
X150564Y387918D01*
X150986Y388340D01*
X151214Y388891D01*
Y389488D01*
X150986Y390039D01*
X150564Y390461D01*
X150013Y390689D01*
D02*
G37*
G36*
X132798Y390500D02*
X132202D01*
X131650Y390272D01*
X131228Y389850D01*
X131000Y389298D01*
Y388702D01*
X131228Y388150D01*
X131650Y387728D01*
X132202Y387500D01*
X132798D01*
X133350Y387728D01*
X133772Y388150D01*
X134000Y388702D01*
Y389298D01*
X133772Y389850D01*
X133350Y390272D01*
X132798Y390500D01*
D02*
G37*
G36*
X157268Y390393D02*
X156671D01*
X156120Y390165D01*
X155698Y389743D01*
X155470Y389192D01*
Y388595D01*
X155698Y388044D01*
X156120Y387622D01*
X156671Y387393D01*
X157268D01*
X157819Y387622D01*
X158241Y388044D01*
X158470Y388595D01*
Y389192D01*
X158241Y389743D01*
X157819Y390165D01*
X157268Y390393D01*
D02*
G37*
G36*
X197248Y390245D02*
X196651D01*
X196100Y390017D01*
X195678Y389595D01*
X195449Y389043D01*
Y388447D01*
X195678Y387895D01*
X196100Y387474D01*
X196651Y387245D01*
X197248D01*
X197799Y387474D01*
X198221Y387895D01*
X198449Y388447D01*
Y389043D01*
X198221Y389595D01*
X197799Y390017D01*
X197248Y390245D01*
D02*
G37*
G36*
X164298Y389500D02*
X163702D01*
X163150Y389272D01*
X162728Y388850D01*
X162500Y388298D01*
Y387702D01*
X162728Y387150D01*
X163150Y386728D01*
X163702Y386500D01*
X164298D01*
X164850Y386728D01*
X165272Y387150D01*
X165500Y387702D01*
Y388298D01*
X165272Y388850D01*
X164850Y389272D01*
X164298Y389500D01*
D02*
G37*
G36*
X191473Y389357D02*
X190876D01*
X190325Y389128D01*
X189903Y388706D01*
X189674Y388155D01*
Y387558D01*
X189903Y387007D01*
X190325Y386585D01*
X190876Y386357D01*
X191473D01*
X192024Y386585D01*
X192446Y387007D01*
X192674Y387558D01*
Y388155D01*
X192446Y388706D01*
X192024Y389128D01*
X191473Y389357D01*
D02*
G37*
G36*
X186586D02*
X185990D01*
X185438Y389128D01*
X185016Y388706D01*
X184788Y388155D01*
Y387558D01*
X185016Y387007D01*
X185438Y386585D01*
X185990Y386357D01*
X186586D01*
X187138Y386585D01*
X187560Y387007D01*
X187788Y387558D01*
Y388155D01*
X187560Y388706D01*
X187138Y389128D01*
X186586Y389357D01*
D02*
G37*
G36*
X210426Y388913D02*
X209829D01*
X209278Y388684D01*
X208856Y388262D01*
X208628Y387711D01*
Y387114D01*
X208856Y386563D01*
X209278Y386141D01*
X209829Y385912D01*
X210426D01*
X210977Y386141D01*
X211399Y386563D01*
X211628Y387114D01*
Y387711D01*
X211399Y388262D01*
X210977Y388684D01*
X210426Y388913D01*
D02*
G37*
%LPD*%
D39*
X161500Y408662D02*
D03*
X254500Y460000D02*
D03*
X285000Y422000D02*
D03*
X157500Y404000D02*
D03*
X165500Y415000D02*
D03*
X274500Y440000D02*
D03*
X205500Y477000D02*
D03*
X187000Y425000D02*
D03*
X196000D02*
D03*
X218000Y422000D02*
D03*
Y419600D02*
D03*
X221155Y437267D02*
D03*
X213444Y436556D02*
D03*
X216523Y439634D02*
D03*
X218444Y441556D02*
D03*
X218000Y471000D02*
D03*
X213500D02*
D03*
X237000Y430000D02*
D03*
Y428000D02*
D03*
Y426000D02*
D03*
Y424000D02*
D03*
X225500Y465000D02*
D03*
X209827Y471095D02*
D03*
X208194Y477806D02*
D03*
X225500Y468000D02*
D03*
X212000Y474000D02*
D03*
X213000Y486200D02*
D03*
X191000Y472500D02*
D03*
X188728Y479850D02*
D03*
X217570Y416200D02*
D03*
X202646Y474178D02*
D03*
X252500Y407000D02*
D03*
X250500D02*
D03*
X248500D02*
D03*
X246500D02*
D03*
X283000Y427000D02*
D03*
X210128Y387413D02*
D03*
X218124Y389337D02*
D03*
X219160Y397926D02*
D03*
Y401479D02*
D03*
X219012Y407402D02*
D03*
X219604Y412733D02*
D03*
X210000Y420000D02*
D03*
X210276Y415694D02*
D03*
X210720Y410068D02*
D03*
X206722Y402368D02*
D03*
X204000Y395500D02*
D03*
X196949Y388745D02*
D03*
X148678Y393928D02*
D03*
X157414Y392891D02*
D03*
X191174Y387857D02*
D03*
X186288D02*
D03*
X174500Y388500D02*
D03*
X171185Y388301D02*
D03*
X164000Y388000D02*
D03*
X156970Y388893D02*
D03*
X149714Y389189D02*
D03*
X140000Y389500D02*
D03*
X132500Y389000D02*
D03*
X221413Y446586D02*
D03*
X217500Y448000D02*
D03*
X210813Y447829D02*
D03*
X206037Y448157D02*
D03*
X197400Y447960D02*
D03*
X187846Y449007D02*
D03*
X187912Y454111D02*
D03*
X192000Y454500D02*
D03*
X199166Y454503D02*
D03*
X204728Y454307D02*
D03*
X210000Y454500D02*
D03*
X216500Y455000D02*
D03*
X221500Y455500D02*
D03*
X221000Y460000D02*
D03*
X216833Y459607D02*
D03*
X213500Y459500D02*
D03*
X209000D02*
D03*
X204500D02*
D03*
X201500D02*
D03*
X197000D02*
D03*
X193000Y460000D02*
D03*
X188500D02*
D03*
X138292Y398999D02*
D03*
X138500Y407000D02*
D03*
X139500Y416000D02*
D03*
X141500Y424500D02*
D03*
X148500Y438000D02*
D03*
X139000Y440500D02*
D03*
Y449000D02*
D03*
X149000Y449500D02*
D03*
X176500Y437500D02*
D03*
X177000Y442500D02*
D03*
X179000Y450500D02*
D03*
X178355Y457063D02*
D03*
X170000Y459500D02*
D03*
X159762Y459129D02*
D03*
X150000Y458000D02*
D03*
X139500Y457500D02*
D03*
X139989Y465990D02*
D03*
X149000Y465500D02*
D03*
X157500Y466000D02*
D03*
X169000D02*
D03*
X178500Y467000D02*
D03*
X176000Y474000D02*
D03*
X184500Y474500D02*
D03*
X167500Y474000D02*
D03*
X156073Y474106D02*
D03*
X145744Y474697D02*
D03*
X135500Y474500D02*
D03*
X135000Y481500D02*
D03*
X141000D02*
D03*
X147293Y481484D02*
D03*
X153500Y481500D02*
D03*
X159500D02*
D03*
X164500D02*
D03*
X169280Y481484D02*
D03*
X176067Y481337D02*
D03*
X180500Y481500D02*
D03*
X198649Y472354D02*
D03*
X189497Y489536D02*
D03*
X217901Y488511D02*
D03*
X211944Y489653D02*
D03*
X201500Y489500D02*
D03*
X196818Y489536D02*
D03*
X183500Y489500D02*
D03*
X174124Y489243D02*
D03*
X165500Y489000D02*
D03*
X159000Y489500D02*
D03*
X150000Y489000D02*
D03*
X139000D02*
D03*
X134500Y489500D02*
D03*
X126500Y489000D02*
D03*
Y480000D02*
D03*
X126477Y468510D02*
D03*
X127499Y461810D02*
D03*
X127953Y455337D02*
D03*
X127272Y447502D02*
D03*
X127499Y440915D02*
D03*
X126500Y432500D02*
D03*
X128000Y393000D02*
D03*
X127000Y400500D02*
D03*
X127612Y407415D02*
D03*
X127953Y413661D02*
D03*
X127000Y418500D02*
D03*
Y425500D02*
D03*
X136000Y433000D02*
D03*
X150000Y428000D02*
D03*
X154000Y425500D02*
D03*
X168500Y418500D02*
D03*
X169000Y421000D02*
D03*
Y423500D02*
D03*
X169179Y426780D02*
D03*
X169000Y429000D02*
D03*
Y431500D02*
D03*
X167000Y434000D02*
D03*
Y436500D02*
D03*
Y439000D02*
D03*
Y441500D02*
D03*
X168252Y444058D02*
D03*
X169500Y447500D02*
D03*
X168837Y450061D02*
D03*
X167080Y452453D02*
D03*
X164500Y453500D02*
D03*
X161500Y453000D02*
D03*
X159000Y450500D02*
D03*
X158500Y447500D02*
D03*
X159500Y444500D02*
D03*
X160500Y442000D02*
D03*
Y439500D02*
D03*
Y436000D02*
D03*
X160000Y433500D02*
D03*
X158500Y431000D02*
D03*
X159000Y428000D02*
D03*
Y425500D02*
D03*
X158500Y422000D02*
D03*
X159000Y419000D02*
D03*
Y416000D02*
D03*
X160005Y398717D02*
D03*
X160500Y401000D02*
D03*
X157000Y399000D02*
D03*
X158500Y407000D02*
D03*
X155500Y405000D02*
D03*
Y408000D02*
D03*
X158000Y401500D02*
D03*
X155500Y402500D02*
D03*
X167519Y408282D02*
D03*
X167129Y405549D02*
D03*
X170741Y404719D02*
D03*
X173500Y404500D02*
D03*
X177000D02*
D03*
X181500Y402500D02*
D03*
X179000Y402000D02*
D03*
X176500D02*
D03*
X173500D02*
D03*
X170500D02*
D03*
X167000D02*
D03*
Y399000D02*
D03*
X170500D02*
D03*
X173500D02*
D03*
X176500D02*
D03*
X179000D02*
D03*
X181500D02*
D03*
X183772Y400229D02*
D03*
X185188Y402621D02*
D03*
X187000Y404000D02*
D03*
X190166Y406672D02*
D03*
X186500Y406500D02*
D03*
X183500Y406000D02*
D03*
X180000Y406500D02*
D03*
X180500Y409000D02*
D03*
X184000Y409500D02*
D03*
X186500Y409000D02*
D03*
X188500Y410000D02*
D03*
X191240Y411357D02*
D03*
X193000Y412000D02*
D03*
X193500Y415000D02*
D03*
Y418000D02*
D03*
X198000Y420000D02*
D03*
X194000Y420500D02*
D03*
X196000Y421000D02*
D03*
X198000Y422000D02*
D03*
X194000Y422500D02*
D03*
X196000Y423000D02*
D03*
X198000Y424500D02*
D03*
X194000D02*
D03*
X186500Y423000D02*
D03*
X189000Y424000D02*
D03*
X184000Y425000D02*
D03*
X181500Y426500D02*
D03*
Y429000D02*
D03*
Y431000D02*
D03*
Y433000D02*
D03*
X182000Y435000D02*
D03*
X183500Y437000D02*
D03*
X188000Y440000D02*
D03*
X190000D02*
D03*
X192000D02*
D03*
X194000D02*
D03*
X196000D02*
D03*
X198000D02*
D03*
X200000D02*
D03*
X202000D02*
D03*
X204000D02*
D03*
X206000D02*
D03*
X208000D02*
D03*
X210000D02*
D03*
X211000Y438500D02*
D03*
X209000D02*
D03*
X207000D02*
D03*
X205000D02*
D03*
X203000D02*
D03*
X201000D02*
D03*
X199000D02*
D03*
X197000D02*
D03*
X195000D02*
D03*
X193000D02*
D03*
X191000D02*
D03*
X189000D02*
D03*
X185500Y438000D02*
D03*
X188000Y437000D02*
D03*
X190000D02*
D03*
X192000D02*
D03*
X194000D02*
D03*
X196000D02*
D03*
X198000D02*
D03*
X200000D02*
D03*
X202000D02*
D03*
X204000D02*
D03*
X206000D02*
D03*
X208000D02*
D03*
X210000D02*
D03*
X211000Y435500D02*
D03*
X209000D02*
D03*
X207000D02*
D03*
X205000D02*
D03*
X203000D02*
D03*
X201000D02*
D03*
X199000D02*
D03*
X197000D02*
D03*
X195000D02*
D03*
X193000D02*
D03*
X191000D02*
D03*
X189000D02*
D03*
X185500Y435000D02*
D03*
X184000Y432500D02*
D03*
Y430000D02*
D03*
Y427500D02*
D03*
X160500Y410500D02*
D03*
X146000Y404000D02*
D03*
X168000Y414500D02*
D03*
X177000Y409000D02*
D03*
X175000Y408000D02*
D03*
X171000Y414500D02*
D03*
X173000Y415500D02*
D03*
X171000Y409000D02*
D03*
X173000Y408000D02*
D03*
X225500Y472500D02*
D03*
X204500Y471000D02*
D03*
X187500D02*
D03*
X213500Y425000D02*
D03*
X164000Y401000D02*
D03*
Y394300D02*
D03*
D42*
X213000Y479500D02*
X255752D01*
X258626Y482374D01*
Y485500D01*
X199389Y484000D02*
X248440D01*
X249940Y485500D02*
X250752D01*
X248440Y484000D02*
X249940Y485500D01*
X265374Y475000D02*
X274374Y484000D01*
X222000Y475000D02*
X265374D01*
X224000Y422000D02*
X258626Y456626D01*
X218000Y422000D02*
X224000D01*
X213500Y425000D02*
X221500D01*
X250752Y454252D02*
Y471120D01*
X221500Y425000D02*
X250752Y454252D01*
X258626Y456626D02*
Y471120D01*
X218000Y471000D02*
X222000Y475000D01*
X219751Y477251D02*
X259751D01*
X213500Y471000D02*
X219751Y477251D01*
X259751D02*
X266500Y484000D01*
X204500Y471000D02*
X213000Y479500D01*
X187500Y471000D02*
X187576Y471076D01*
Y472188D01*
X199389Y484000D01*
D44*
X250752Y471120D02*
D03*
X258626D02*
D03*
X266500D02*
D03*
X274374D02*
D03*
X282248D02*
D03*
X250752Y485500D02*
D03*
X282248D02*
D03*
X274374D02*
D03*
X266500D02*
D03*
X258626D02*
D03*
D45*
X164000Y448000D02*
D03*
M02*
