M48
;Layer_Color=9474304
;FILE_FORMAT=2:5
INCH
;TYPE=PLATED
T01F00S00C0.00800
T02F00S00C0.03200
T03F00S00C0.03937
%
T01
X0128000Y0393000
X0132500Y0389000
X0140000Y0389500
X0149714Y0389189
X0148678Y0393928
X0146000Y0404000
X0138500Y0407000
X0138292Y0398999
X0127000Y0400500
X0127612Y0407415
X0127953Y0413661
X0127000Y0418500
Y0425500
X0126500Y0432500
X0127499Y0440915
X0127272Y0447502
X0127953Y0455337
X0127499Y0461810
X0126477Y0468510
X0139989Y0465990
X0139500Y0457500
X0139000Y0449000
Y0440500
X0136000Y0433000
X0141500Y0424500
X0139500Y0416000
X0150000Y0428000
X0154000Y0425500
X0148500Y0438000
X0149000Y0449500
X0150000Y0458000
X0149000Y0465500
X0155500Y0408000
Y0405000
Y0402500
X0157500Y0404000
X0158000Y0401500
X0160500Y0401000
X0160005Y0398717
X0157000Y0399000
X0157414Y0392891
X0156970Y0388893
X0164000Y0388000
Y0394300
Y0401000
X0167000Y0402000
Y0399000
X0170500
Y0402000
X0170741Y0404719
X0173500Y0404500
Y0402000
X0176500
X0179000
X0181500Y0402500
Y0399000
X0179000
X0176500
X0173500
X0177000Y0404500
Y0409000
X0175000Y0408000
X0173000
X0171000Y0409000
X0167519Y0408282
X0167129Y0405549
X0161500Y0408662
X0160500Y0410500
X0158500Y0407000
X0159000Y0416000
Y0419000
X0158500Y0422000
X0159000Y0425500
Y0428000
X0158500Y0431000
X0160000Y0433500
X0160500Y0436000
Y0439500
Y0442000
X0159500Y0444500
X0158500Y0447500
X0159000Y0450500
X0161500Y0453000
X0164500Y0453500
X0167080Y0452453
X0168837Y0450061
X0169500Y0447500
X0168252Y0444058
X0167000Y0441500
Y0439000
Y0436500
Y0434000
X0169000Y0431500
Y0429000
X0169179Y0426780
X0169000Y0423500
Y0421000
X0168500Y0418500
X0168000Y0414500
X0165500Y0415000
X0171000Y0414500
X0173000Y0415500
X0180500Y0409000
X0180000Y0406500
X0183500Y0406000
X0186500Y0406500
Y0409000
X0184000Y0409500
X0188500Y0410000
X0191240Y0411357
X0193000Y0412000
X0193500Y0415000
Y0418000
X0194000Y0420500
Y0422500
Y0424500
X0196000Y0425000
Y0423000
Y0421000
X0198000Y0420000
Y0422000
Y0424500
X0189000Y0424000
X0187000Y0425000
X0186500Y0423000
X0184000Y0425000
Y0427500
Y0430000
Y0432500
X0181500Y0433000
Y0431000
Y0429000
Y0426500
X0182000Y0435000
X0183500Y0437000
X0185500Y0438000
Y0435000
X0189000Y0435500
X0191000
X0193000
X0195000
X0197000
X0199000
X0201000
X0203000
X0205000
X0207000
X0209000
X0211000
X0210000Y0437000
X0208000
X0206000
X0204000
X0202000
X0200000
X0198000
X0196000
X0194000
X0192000
X0190000
X0188000
X0189000Y0438500
X0191000
X0193000
X0195000
X0197000
X0199000
X0201000
X0203000
X0205000
X0207000
X0209000
X0211000
X0210000Y0440000
X0208000
X0206000
X0204000
X0202000
X0200000
X0198000
X0196000
X0194000
X0192000
X0190000
X0188000
X0187846Y0449007
X0187912Y0454111
X0192000Y0454500
X0193000Y0460000
X0197000Y0459500
X0201500
X0204500
X0209000
X0213500
X0216833Y0459607
X0221000Y0460000
X0221500Y0455500
X0216500Y0455000
X0210000Y0454500
X0204728Y0454307
X0199166Y0454503
X0197400Y0447960
X0206037Y0448157
X0210813Y0447829
X0217500Y0448000
X0221413Y0446586
X0218444Y0441556
X0216523Y0439634
X0213444Y0436556
X0221155Y0437267
X0218000Y0422000
Y0419600
X0217570Y0416200
X0219604Y0412733
X0219012Y0407402
X0219160Y0401479
Y0397926
X0218124Y0389337
X0210128Y0387413
X0204000Y0395500
X0206722Y0402368
X0210720Y0410068
X0210276Y0415694
X0210000Y0420000
X0213500Y0425000
X0237000Y0426000
Y0428000
Y0430000
Y0424000
X0246500Y0407000
X0248500
X0250500
X0252500
X0285000Y0422000
X0283000Y0427000
X0274500Y0440000
X0254500Y0460000
X0225500Y0465000
Y0468000
X0188500Y0460000
X0178355Y0457063
X0179000Y0450500
X0177000Y0442500
X0176500Y0437500
X0170000Y0459500
X0169000Y0466000
X0178500Y0467000
X0157500Y0466000
X0159762Y0459129
X0185188Y0402621
X0187000Y0404000
X0190166Y0406672
X0183772Y0400229
X0186288Y0387857
X0191174
X0196949Y0388745
X0174500Y0388500
X0171185Y0388301
X0167500Y0474000
X0176000
X0176067Y0481337
X0180500Y0481500
X0188728Y0479850
X0184500Y0474500
X0187500Y0471000
X0191000Y0472500
X0198649Y0472354
X0202646Y0474178
X0204500Y0471000
X0209827Y0471095
X0213500Y0471000
X0218000
X0212000Y0474000
X0208194Y0477806
X0205500Y0477000
X0201500Y0489500
X0196818Y0489536
X0189497
X0183500Y0489500
X0174124Y0489243
X0165500Y0489000
X0159000Y0489500
X0159500Y0481500
X0164500
X0169280Y0481484
X0213000Y0486200
X0211944Y0489653
X0217901Y0488511
X0225500Y0472500
X0156073Y0474106
X0153500Y0481500
X0147293Y0481484
X0141000Y0481500
X0135000
X0135500Y0474500
X0145744Y0474697
X0150000Y0489000
X0139000
X0134500Y0489500
X0126500Y0489000
Y0480000
T02
X0250752Y0471120
X0258626
X0266500
X0274374
X0282248
X0282248Y0485500
X0274374
X0266500
X0258626
X0250752
T03
X0164000Y0448000
M30
