G04*
G04 #@! TF.GenerationSoftware,Altium Limited,Altium Designer,25.8.1 (18)*
G04*
G04 Layer_Color=128*
%FSLAX25Y25*%
%MOIN*%
G70*
G04*
G04 #@! TF.SameCoordinates,7B14AC28-D965-4A85-B311-1C3B9A759C65*
G04*
G04*
G04 #@! TF.FilePolarity,Positive*
G04*
G01*
G75*
%ADD48C,0.00500*%
D48*
X249152Y471120D02*
X252352D01*
X250752Y469520D02*
Y472720D01*
X257026Y471120D02*
X260226D01*
X258626Y469520D02*
Y472720D01*
X264900Y471120D02*
X268100D01*
X266500Y469520D02*
Y472720D01*
X272774Y471120D02*
X275974D01*
X274374Y469520D02*
Y472720D01*
X280648Y471120D02*
X283848D01*
X282248Y469520D02*
Y472720D01*
X249152Y485500D02*
X252352D01*
X250752Y483900D02*
Y487100D01*
X162031Y448000D02*
X165969D01*
X164000Y446032D02*
Y449968D01*
X280648Y485500D02*
X283848D01*
X282248Y483900D02*
Y487100D01*
X272774Y485500D02*
X275974D01*
X274374Y483900D02*
Y487100D01*
X264900Y485500D02*
X268100D01*
X266500Y483900D02*
Y487100D01*
X257026Y485500D02*
X260226D01*
X258626Y483900D02*
Y487100D01*
X161100Y408662D02*
X161900D01*
X161500Y408262D02*
Y409062D01*
X254100Y460000D02*
X254900D01*
X254500Y459600D02*
Y460400D01*
X284600Y422000D02*
X285400D01*
X285000Y421600D02*
Y422400D01*
X157100Y404000D02*
X157900D01*
X157500Y403600D02*
Y404400D01*
X165100Y415000D02*
X165900D01*
X165500Y414600D02*
Y415400D01*
X274100Y440000D02*
X274900D01*
X274500Y439600D02*
Y440400D01*
X205100Y477000D02*
X205900D01*
X205500Y476600D02*
Y477400D01*
X186600Y425000D02*
X187400D01*
X187000Y424600D02*
Y425400D01*
X195600Y425000D02*
X196400D01*
X196000Y424600D02*
Y425400D01*
X217600Y422000D02*
X218400D01*
X218000Y421600D02*
Y422400D01*
X217600Y419600D02*
X218400D01*
X218000Y419200D02*
Y420000D01*
X220755Y437267D02*
X221555D01*
X221155Y436867D02*
Y437667D01*
X213044Y436556D02*
X213844D01*
X213444Y436156D02*
Y436956D01*
X216123Y439634D02*
X216922D01*
X216523Y439234D02*
Y440034D01*
X218044Y441556D02*
X218844D01*
X218444Y441156D02*
Y441956D01*
X217600Y471000D02*
X218400D01*
X218000Y470600D02*
Y471400D01*
X213100Y471000D02*
X213900D01*
X213500Y470600D02*
Y471400D01*
X236600Y430000D02*
X237400D01*
X237000Y429600D02*
Y430400D01*
X236600Y428000D02*
X237400D01*
X237000Y427600D02*
Y428400D01*
X236600Y426000D02*
X237400D01*
X237000Y425600D02*
Y426400D01*
X236600Y424000D02*
X237400D01*
X237000Y423600D02*
Y424400D01*
X225100Y465000D02*
X225900D01*
X225500Y464600D02*
Y465400D01*
X209427Y471095D02*
X210227D01*
X209827Y470695D02*
Y471495D01*
X207794Y477806D02*
X208594D01*
X208194Y477406D02*
Y478206D01*
X225100Y468000D02*
X225900D01*
X225500Y467600D02*
Y468400D01*
X211600Y474000D02*
X212400D01*
X212000Y473600D02*
Y474400D01*
X212600Y486200D02*
X213400D01*
X213000Y485800D02*
Y486600D01*
X190600Y472500D02*
X191400D01*
X191000Y472100D02*
Y472900D01*
X188328Y479850D02*
X189128D01*
X188728Y479450D02*
Y480250D01*
X217170Y416200D02*
X217970D01*
X217570Y415800D02*
Y416600D01*
X202246Y474178D02*
X203046D01*
X202646Y473778D02*
Y474578D01*
X252100Y407000D02*
X252900D01*
X252500Y406600D02*
Y407400D01*
X250100Y407000D02*
X250900D01*
X250500Y406600D02*
Y407400D01*
X248100Y407000D02*
X248900D01*
X248500Y406600D02*
Y407400D01*
X246100Y407000D02*
X246900D01*
X246500Y406600D02*
Y407400D01*
X282600Y427000D02*
X283400D01*
X283000Y426600D02*
Y427400D01*
X209728Y387413D02*
X210528D01*
X210128Y387013D02*
Y387812D01*
X217724Y389337D02*
X218524D01*
X218124Y388937D02*
Y389737D01*
X218760Y397926D02*
X219560D01*
X219160Y397526D02*
Y398326D01*
X218760Y401479D02*
X219560D01*
X219160Y401079D02*
Y401879D01*
X218612Y407402D02*
X219412D01*
X219012Y407002D02*
Y407802D01*
X219204Y412733D02*
X220004D01*
X219604Y412333D02*
Y413133D01*
X209600Y420000D02*
X210400D01*
X210000Y419600D02*
Y420400D01*
X209876Y415694D02*
X210676D01*
X210276Y415294D02*
Y416094D01*
X210320Y410068D02*
X211120D01*
X210720Y409668D02*
Y410468D01*
X206322Y402368D02*
X207122D01*
X206722Y401968D02*
Y402768D01*
X203600Y395500D02*
X204400D01*
X204000Y395100D02*
Y395900D01*
X196549Y388745D02*
X197349D01*
X196949Y388345D02*
Y389145D01*
X148278Y393928D02*
X149078D01*
X148678Y393528D02*
Y394328D01*
X157014Y392891D02*
X157814D01*
X157414Y392491D02*
Y393291D01*
X190774Y387857D02*
X191574D01*
X191174Y387457D02*
Y388257D01*
X185888Y387857D02*
X186688D01*
X186288Y387457D02*
Y388257D01*
X174100Y388500D02*
X174900D01*
X174500Y388100D02*
Y388900D01*
X170785Y388301D02*
X171585D01*
X171185Y387901D02*
Y388701D01*
X163600Y388000D02*
X164400D01*
X164000Y387600D02*
Y388400D01*
X156570Y388893D02*
X157370D01*
X156970Y388493D02*
Y389293D01*
X149314Y389189D02*
X150114D01*
X149714Y388789D02*
Y389589D01*
X139600Y389500D02*
X140400D01*
X140000Y389100D02*
Y389900D01*
X132100Y389000D02*
X132900D01*
X132500Y388600D02*
Y389400D01*
X221013Y446586D02*
X221813D01*
X221413Y446186D02*
Y446986D01*
X217100Y448000D02*
X217900D01*
X217500Y447600D02*
Y448400D01*
X210413Y447829D02*
X211213D01*
X210813Y447429D02*
Y448229D01*
X205637Y448157D02*
X206437D01*
X206037Y447757D02*
Y448557D01*
X197000Y447960D02*
X197800D01*
X197400Y447560D02*
Y448360D01*
X187446Y449007D02*
X188246D01*
X187846Y448607D02*
Y449407D01*
X187512Y454111D02*
X188312D01*
X187912Y453711D02*
Y454511D01*
X191600Y454500D02*
X192400D01*
X192000Y454100D02*
Y454900D01*
X198766Y454503D02*
X199566D01*
X199166Y454104D02*
Y454904D01*
X204328Y454307D02*
X205128D01*
X204728Y453907D02*
Y454707D01*
X209600Y454500D02*
X210400D01*
X210000Y454100D02*
Y454900D01*
X216100Y455000D02*
X216900D01*
X216500Y454600D02*
Y455400D01*
X221100Y455500D02*
X221900D01*
X221500Y455100D02*
Y455900D01*
X220600Y460000D02*
X221400D01*
X221000Y459600D02*
Y460400D01*
X216433Y459607D02*
X217233D01*
X216833Y459207D02*
Y460007D01*
X213100Y459500D02*
X213900D01*
X213500Y459100D02*
Y459900D01*
X208600Y459500D02*
X209400D01*
X209000Y459100D02*
Y459900D01*
X204100Y459500D02*
X204900D01*
X204500Y459100D02*
Y459900D01*
X201100Y459500D02*
X201900D01*
X201500Y459100D02*
Y459900D01*
X196600Y459500D02*
X197400D01*
X197000Y459100D02*
Y459900D01*
X192600Y460000D02*
X193400D01*
X193000Y459600D02*
Y460400D01*
X188100Y460000D02*
X188900D01*
X188500Y459600D02*
Y460400D01*
X137892Y398999D02*
X138692D01*
X138292Y398599D02*
Y399399D01*
X138100Y407000D02*
X138900D01*
X138500Y406600D02*
Y407400D01*
X139100Y416000D02*
X139900D01*
X139500Y415600D02*
Y416400D01*
X141100Y424500D02*
X141900D01*
X141500Y424100D02*
Y424900D01*
X148100Y438000D02*
X148900D01*
X148500Y437600D02*
Y438400D01*
X138600Y440500D02*
X139400D01*
X139000Y440100D02*
Y440900D01*
X138600Y449000D02*
X139400D01*
X139000Y448600D02*
Y449400D01*
X148600Y449500D02*
X149400D01*
X149000Y449100D02*
Y449900D01*
X176100Y437500D02*
X176900D01*
X176500Y437100D02*
Y437900D01*
X176600Y442500D02*
X177400D01*
X177000Y442100D02*
Y442900D01*
X178600Y450500D02*
X179400D01*
X179000Y450100D02*
Y450900D01*
X177955Y457063D02*
X178755D01*
X178355Y456663D02*
Y457463D01*
X169600Y459500D02*
X170400D01*
X170000Y459100D02*
Y459900D01*
X159362Y459129D02*
X160162D01*
X159762Y458729D02*
Y459529D01*
X149600Y458000D02*
X150400D01*
X150000Y457600D02*
Y458400D01*
X139100Y457500D02*
X139900D01*
X139500Y457100D02*
Y457900D01*
X139589Y465990D02*
X140389D01*
X139989Y465590D02*
Y466390D01*
X148600Y465500D02*
X149400D01*
X149000Y465100D02*
Y465900D01*
X157100Y466000D02*
X157900D01*
X157500Y465600D02*
Y466400D01*
X168600Y466000D02*
X169400D01*
X169000Y465600D02*
Y466400D01*
X178100Y467000D02*
X178900D01*
X178500Y466600D02*
Y467400D01*
X175600Y474000D02*
X176400D01*
X176000Y473600D02*
Y474400D01*
X184100Y474500D02*
X184900D01*
X184500Y474100D02*
Y474900D01*
X167100Y474000D02*
X167900D01*
X167500Y473600D02*
Y474400D01*
X155673Y474106D02*
X156473D01*
X156073Y473706D02*
Y474506D01*
X145344Y474697D02*
X146144D01*
X145744Y474297D02*
Y475097D01*
X135100Y474500D02*
X135900D01*
X135500Y474100D02*
Y474900D01*
X134600Y481500D02*
X135400D01*
X135000Y481100D02*
Y481900D01*
X140600Y481500D02*
X141400D01*
X141000Y481100D02*
Y481900D01*
X146893Y481484D02*
X147693D01*
X147293Y481084D02*
Y481884D01*
X153100Y481500D02*
X153900D01*
X153500Y481100D02*
Y481900D01*
X159100Y481500D02*
X159900D01*
X159500Y481100D02*
Y481900D01*
X164100Y481500D02*
X164900D01*
X164500Y481100D02*
Y481900D01*
X168880Y481484D02*
X169680D01*
X169280Y481084D02*
Y481884D01*
X175667Y481337D02*
X176467D01*
X176067Y480937D02*
Y481737D01*
X180100Y481500D02*
X180900D01*
X180500Y481100D02*
Y481900D01*
X198249Y472354D02*
X199049D01*
X198649Y471954D02*
Y472754D01*
X189097Y489536D02*
X189897D01*
X189497Y489136D02*
Y489936D01*
X217501Y488511D02*
X218301D01*
X217901Y488111D02*
Y488911D01*
X211544Y489653D02*
X212344D01*
X211944Y489253D02*
Y490053D01*
X201100Y489500D02*
X201900D01*
X201500Y489100D02*
Y489900D01*
X196418Y489536D02*
X197218D01*
X196818Y489136D02*
Y489936D01*
X183100Y489500D02*
X183900D01*
X183500Y489100D02*
Y489900D01*
X173723Y489243D02*
X174523D01*
X174124Y488843D02*
Y489643D01*
X165100Y489000D02*
X165900D01*
X165500Y488600D02*
Y489400D01*
X158600Y489500D02*
X159400D01*
X159000Y489100D02*
Y489900D01*
X149600Y489000D02*
X150400D01*
X150000Y488600D02*
Y489400D01*
X138600Y489000D02*
X139400D01*
X139000Y488600D02*
Y489400D01*
X134100Y489500D02*
X134900D01*
X134500Y489100D02*
Y489900D01*
X126100Y489000D02*
X126900D01*
X126500Y488600D02*
Y489400D01*
X126100Y480000D02*
X126900D01*
X126500Y479600D02*
Y480400D01*
X126077Y468510D02*
X126877D01*
X126477Y468110D02*
Y468910D01*
X127099Y461810D02*
X127899D01*
X127499Y461410D02*
Y462210D01*
X127553Y455337D02*
X128353D01*
X127953Y454937D02*
Y455737D01*
X126872Y447502D02*
X127672D01*
X127272Y447102D02*
Y447902D01*
X127099Y440915D02*
X127899D01*
X127499Y440515D02*
Y441315D01*
X126100Y432500D02*
X126900D01*
X126500Y432100D02*
Y432900D01*
X127600Y393000D02*
X128400D01*
X128000Y392600D02*
Y393400D01*
X126600Y400500D02*
X127400D01*
X127000Y400100D02*
Y400900D01*
X127212Y407415D02*
X128012D01*
X127612Y407015D02*
Y407815D01*
X127553Y413661D02*
X128353D01*
X127953Y413261D02*
Y414061D01*
X126600Y418500D02*
X127400D01*
X127000Y418100D02*
Y418900D01*
X126600Y425500D02*
X127400D01*
X127000Y425100D02*
Y425900D01*
X135600Y433000D02*
X136400D01*
X136000Y432600D02*
Y433400D01*
X149600Y428000D02*
X150400D01*
X150000Y427600D02*
Y428400D01*
X153600Y425500D02*
X154400D01*
X154000Y425100D02*
Y425900D01*
X168100Y418500D02*
X168900D01*
X168500Y418100D02*
Y418900D01*
X168600Y421000D02*
X169400D01*
X169000Y420600D02*
Y421400D01*
X168600Y423500D02*
X169400D01*
X169000Y423100D02*
Y423900D01*
X168779Y426780D02*
X169579D01*
X169179Y426380D02*
Y427180D01*
X168600Y429000D02*
X169400D01*
X169000Y428600D02*
Y429400D01*
X168600Y431500D02*
X169400D01*
X169000Y431100D02*
Y431900D01*
X166600Y434000D02*
X167400D01*
X167000Y433600D02*
Y434400D01*
X166600Y436500D02*
X167400D01*
X167000Y436100D02*
Y436900D01*
X166600Y439000D02*
X167400D01*
X167000Y438600D02*
Y439400D01*
X166600Y441500D02*
X167400D01*
X167000Y441100D02*
Y441900D01*
X167851Y444058D02*
X168651D01*
X168252Y443658D02*
Y444458D01*
X169100Y447500D02*
X169900D01*
X169500Y447100D02*
Y447900D01*
X168437Y450061D02*
X169237D01*
X168837Y449661D02*
Y450461D01*
X166680Y452453D02*
X167480D01*
X167080Y452053D02*
Y452853D01*
X164100Y453500D02*
X164900D01*
X164500Y453100D02*
Y453900D01*
X161100Y453000D02*
X161900D01*
X161500Y452600D02*
Y453400D01*
X158600Y450500D02*
X159400D01*
X159000Y450100D02*
Y450900D01*
X158100Y447500D02*
X158900D01*
X158500Y447100D02*
Y447900D01*
X159100Y444500D02*
X159900D01*
X159500Y444100D02*
Y444900D01*
X160100Y442000D02*
X160900D01*
X160500Y441600D02*
Y442400D01*
X160100Y439500D02*
X160900D01*
X160500Y439100D02*
Y439900D01*
X160100Y436000D02*
X160900D01*
X160500Y435600D02*
Y436400D01*
X159600Y433500D02*
X160400D01*
X160000Y433100D02*
Y433900D01*
X158100Y431000D02*
X158900D01*
X158500Y430600D02*
Y431400D01*
X158600Y428000D02*
X159400D01*
X159000Y427600D02*
Y428400D01*
X158600Y425500D02*
X159400D01*
X159000Y425100D02*
Y425900D01*
X158100Y422000D02*
X158900D01*
X158500Y421600D02*
Y422400D01*
X158600Y419000D02*
X159400D01*
X159000Y418600D02*
Y419400D01*
X158600Y416000D02*
X159400D01*
X159000Y415600D02*
Y416400D01*
X159605Y398717D02*
X160405D01*
X160005Y398317D02*
Y399117D01*
X160100Y401000D02*
X160900D01*
X160500Y400600D02*
Y401400D01*
X156600Y399000D02*
X157400D01*
X157000Y398600D02*
Y399400D01*
X158100Y407000D02*
X158900D01*
X158500Y406600D02*
Y407400D01*
X155100Y405000D02*
X155900D01*
X155500Y404600D02*
Y405400D01*
X155100Y408000D02*
X155900D01*
X155500Y407600D02*
Y408400D01*
X157600Y401500D02*
X158400D01*
X158000Y401100D02*
Y401900D01*
X155100Y402500D02*
X155900D01*
X155500Y402100D02*
Y402900D01*
X167120Y408282D02*
X167920D01*
X167519Y407882D02*
Y408682D01*
X166729Y405549D02*
X167529D01*
X167129Y405149D02*
Y405949D01*
X170341Y404719D02*
X171141D01*
X170741Y404319D02*
Y405119D01*
X173100Y404500D02*
X173900D01*
X173500Y404100D02*
Y404900D01*
X176600Y404500D02*
X177400D01*
X177000Y404100D02*
Y404900D01*
X181100Y402500D02*
X181900D01*
X181500Y402100D02*
Y402900D01*
X178600Y402000D02*
X179400D01*
X179000Y401600D02*
Y402400D01*
X176100Y402000D02*
X176900D01*
X176500Y401600D02*
Y402400D01*
X173100Y402000D02*
X173900D01*
X173500Y401600D02*
Y402400D01*
X170100Y402000D02*
X170900D01*
X170500Y401600D02*
Y402400D01*
X166600Y402000D02*
X167400D01*
X167000Y401600D02*
Y402400D01*
X166600Y399000D02*
X167400D01*
X167000Y398600D02*
Y399400D01*
X170100Y399000D02*
X170900D01*
X170500Y398600D02*
Y399400D01*
X173100Y399000D02*
X173900D01*
X173500Y398600D02*
Y399400D01*
X176100Y399000D02*
X176900D01*
X176500Y398600D02*
Y399400D01*
X178600Y399000D02*
X179400D01*
X179000Y398600D02*
Y399400D01*
X181100Y399000D02*
X181900D01*
X181500Y398600D02*
Y399400D01*
X183372Y400229D02*
X184172D01*
X183772Y399829D02*
Y400629D01*
X184788Y402621D02*
X185588D01*
X185188Y402221D02*
Y403021D01*
X186600Y404000D02*
X187400D01*
X187000Y403600D02*
Y404400D01*
X189766Y406672D02*
X190566D01*
X190166Y406272D02*
Y407072D01*
X186100Y406500D02*
X186900D01*
X186500Y406100D02*
Y406900D01*
X183100Y406000D02*
X183900D01*
X183500Y405600D02*
Y406400D01*
X179600Y406500D02*
X180400D01*
X180000Y406100D02*
Y406900D01*
X180100Y409000D02*
X180900D01*
X180500Y408600D02*
Y409400D01*
X183600Y409500D02*
X184400D01*
X184000Y409100D02*
Y409900D01*
X186100Y409000D02*
X186900D01*
X186500Y408600D02*
Y409400D01*
X188100Y410000D02*
X188900D01*
X188500Y409600D02*
Y410400D01*
X190840Y411357D02*
X191640D01*
X191240Y410957D02*
Y411757D01*
X192600Y412000D02*
X193400D01*
X193000Y411600D02*
Y412400D01*
X193100Y415000D02*
X193900D01*
X193500Y414600D02*
Y415400D01*
X193100Y418000D02*
X193900D01*
X193500Y417600D02*
Y418400D01*
X197600Y420000D02*
X198400D01*
X198000Y419600D02*
Y420400D01*
X193600Y420500D02*
X194400D01*
X194000Y420100D02*
Y420900D01*
X195600Y421000D02*
X196400D01*
X196000Y420600D02*
Y421400D01*
X197600Y422000D02*
X198400D01*
X198000Y421600D02*
Y422400D01*
X193600Y422500D02*
X194400D01*
X194000Y422100D02*
Y422900D01*
X195600Y423000D02*
X196400D01*
X196000Y422600D02*
Y423400D01*
X197600Y424500D02*
X198400D01*
X198000Y424100D02*
Y424900D01*
X193600Y424500D02*
X194400D01*
X194000Y424100D02*
Y424900D01*
X186100Y423000D02*
X186900D01*
X186500Y422600D02*
Y423400D01*
X188600Y424000D02*
X189400D01*
X189000Y423600D02*
Y424400D01*
X183600Y425000D02*
X184400D01*
X184000Y424600D02*
Y425400D01*
X181100Y426500D02*
X181900D01*
X181500Y426100D02*
Y426900D01*
X181100Y429000D02*
X181900D01*
X181500Y428600D02*
Y429400D01*
X181100Y431000D02*
X181900D01*
X181500Y430600D02*
Y431400D01*
X181100Y433000D02*
X181900D01*
X181500Y432600D02*
Y433400D01*
X181600Y435000D02*
X182400D01*
X182000Y434600D02*
Y435400D01*
X183100Y437000D02*
X183900D01*
X183500Y436600D02*
Y437400D01*
X187600Y440000D02*
X188400D01*
X188000Y439600D02*
Y440400D01*
X189600Y440000D02*
X190400D01*
X190000Y439600D02*
Y440400D01*
X191600Y440000D02*
X192400D01*
X192000Y439600D02*
Y440400D01*
X193600Y440000D02*
X194400D01*
X194000Y439600D02*
Y440400D01*
X195600Y440000D02*
X196400D01*
X196000Y439600D02*
Y440400D01*
X197600Y440000D02*
X198400D01*
X198000Y439600D02*
Y440400D01*
X199600Y440000D02*
X200400D01*
X200000Y439600D02*
Y440400D01*
X201600Y440000D02*
X202400D01*
X202000Y439600D02*
Y440400D01*
X203600Y440000D02*
X204400D01*
X204000Y439600D02*
Y440400D01*
X205600Y440000D02*
X206400D01*
X206000Y439600D02*
Y440400D01*
X207600Y440000D02*
X208400D01*
X208000Y439600D02*
Y440400D01*
X209600Y440000D02*
X210400D01*
X210000Y439600D02*
Y440400D01*
X210600Y438500D02*
X211400D01*
X211000Y438100D02*
Y438900D01*
X208600Y438500D02*
X209400D01*
X209000Y438100D02*
Y438900D01*
X206600Y438500D02*
X207400D01*
X207000Y438100D02*
Y438900D01*
X204600Y438500D02*
X205400D01*
X205000Y438100D02*
Y438900D01*
X202600Y438500D02*
X203400D01*
X203000Y438100D02*
Y438900D01*
X200600Y438500D02*
X201400D01*
X201000Y438100D02*
Y438900D01*
X198600Y438500D02*
X199400D01*
X199000Y438100D02*
Y438900D01*
X196600Y438500D02*
X197400D01*
X197000Y438100D02*
Y438900D01*
X194600Y438500D02*
X195400D01*
X195000Y438100D02*
Y438900D01*
X192600Y438500D02*
X193400D01*
X193000Y438100D02*
Y438900D01*
X190600Y438500D02*
X191400D01*
X191000Y438100D02*
Y438900D01*
X188600Y438500D02*
X189400D01*
X189000Y438100D02*
Y438900D01*
X185100Y438000D02*
X185900D01*
X185500Y437600D02*
Y438400D01*
X187600Y437000D02*
X188400D01*
X188000Y436600D02*
Y437400D01*
X189600Y437000D02*
X190400D01*
X190000Y436600D02*
Y437400D01*
X191600Y437000D02*
X192400D01*
X192000Y436600D02*
Y437400D01*
X193600Y437000D02*
X194400D01*
X194000Y436600D02*
Y437400D01*
X195600Y437000D02*
X196400D01*
X196000Y436600D02*
Y437400D01*
X197600Y437000D02*
X198400D01*
X198000Y436600D02*
Y437400D01*
X199600Y437000D02*
X200400D01*
X200000Y436600D02*
Y437400D01*
X201600Y437000D02*
X202400D01*
X202000Y436600D02*
Y437400D01*
X203600Y437000D02*
X204400D01*
X204000Y436600D02*
Y437400D01*
X205600Y437000D02*
X206400D01*
X206000Y436600D02*
Y437400D01*
X207600Y437000D02*
X208400D01*
X208000Y436600D02*
Y437400D01*
X209600Y437000D02*
X210400D01*
X210000Y436600D02*
Y437400D01*
X210600Y435500D02*
X211400D01*
X211000Y435100D02*
Y435900D01*
X208600Y435500D02*
X209400D01*
X209000Y435100D02*
Y435900D01*
X206600Y435500D02*
X207400D01*
X207000Y435100D02*
Y435900D01*
X204600Y435500D02*
X205400D01*
X205000Y435100D02*
Y435900D01*
X202600Y435500D02*
X203400D01*
X203000Y435100D02*
Y435900D01*
X200600Y435500D02*
X201400D01*
X201000Y435100D02*
Y435900D01*
X198600Y435500D02*
X199400D01*
X199000Y435100D02*
Y435900D01*
X196600Y435500D02*
X197400D01*
X197000Y435100D02*
Y435900D01*
X194600Y435500D02*
X195400D01*
X195000Y435100D02*
Y435900D01*
X192600Y435500D02*
X193400D01*
X193000Y435100D02*
Y435900D01*
X190600Y435500D02*
X191400D01*
X191000Y435100D02*
Y435900D01*
X188600Y435500D02*
X189400D01*
X189000Y435100D02*
Y435900D01*
X185100Y435000D02*
X185900D01*
X185500Y434600D02*
Y435400D01*
X183600Y432500D02*
X184400D01*
X184000Y432100D02*
Y432900D01*
X183600Y430000D02*
X184400D01*
X184000Y429600D02*
Y430400D01*
X183600Y427500D02*
X184400D01*
X184000Y427100D02*
Y427900D01*
X160100Y410500D02*
X160900D01*
X160500Y410100D02*
Y410900D01*
X145600Y404000D02*
X146400D01*
X146000Y403600D02*
Y404400D01*
X167600Y414500D02*
X168400D01*
X168000Y414100D02*
Y414900D01*
X176600Y409000D02*
X177400D01*
X177000Y408600D02*
Y409400D01*
X174600Y408000D02*
X175400D01*
X175000Y407600D02*
Y408400D01*
X170600Y414500D02*
X171400D01*
X171000Y414100D02*
Y414900D01*
X172600Y415500D02*
X173400D01*
X173000Y415100D02*
Y415900D01*
X170600Y409000D02*
X171400D01*
X171000Y408600D02*
Y409400D01*
X172600Y408000D02*
X173400D01*
X173000Y407600D02*
Y408400D01*
X225100Y472500D02*
X225900D01*
X225500Y472100D02*
Y472900D01*
X204100Y471000D02*
X204900D01*
X204500Y470600D02*
Y471400D01*
X187100Y471000D02*
X187900D01*
X187500Y470600D02*
Y471400D01*
X213100Y425000D02*
X213900D01*
X213500Y424600D02*
Y425400D01*
X163600Y401000D02*
X164400D01*
X164000Y400600D02*
Y401400D01*
X163600Y394300D02*
X164400D01*
X164000Y393900D02*
Y394700D01*
M02*
