G04*
G04 #@! TF.GenerationSoftware,Altium Limited,Altium Designer,25.8.1 (18)*
G04*
G04 Layer_Color=32768*
%FSLAX25Y25*%
%MOIN*%
G70*
G04*
G04 #@! TF.SameCoordinates,7B14AC28-D965-4A85-B311-1C3B9A759C65*
G04*
G04*
G04 #@! TF.FilePolarity,Positive*
G04*
G01*
G75*
%ADD10C,0.00394*%
%ADD46C,0.00197*%
D10*
X159177Y406701D02*
Y416347D01*
X168823D01*
Y406701D02*
Y416347D01*
X159177Y406701D02*
X168823D01*
X253417Y454772D02*
X255583D01*
X254500Y453689D02*
Y455854D01*
X279772Y420917D02*
Y423083D01*
X278689Y422000D02*
X280854D01*
X184618Y428905D02*
Y467095D01*
Y428905D02*
X224382D01*
Y467095D01*
X184618D02*
X224382D01*
X265638Y436850D02*
X270362D01*
X265638D02*
Y443150D01*
X270362D01*
Y436850D02*
Y443150D01*
X268394Y436850D02*
X270362Y438819D01*
X150728Y402917D02*
Y405083D01*
X149646Y404000D02*
X151811D01*
X249500Y415035D02*
Y418972D01*
X247532Y417004D02*
X251468D01*
X283000Y435528D02*
Y439465D01*
X281031Y437496D02*
X284968D01*
X170244Y413795D02*
X175756D01*
Y409465D02*
Y413795D01*
X170244Y409465D02*
X175756D01*
X170244D02*
Y413795D01*
X122504Y392449D02*
X220339D01*
Y490283D01*
X122504D02*
X220339D01*
X122504Y392449D02*
Y490283D01*
X220339Y444500D02*
X229000D01*
Y424500D02*
Y444500D01*
X220339Y424500D02*
X229000D01*
X266689Y422000D02*
X268854D01*
X267772Y420917D02*
Y423083D01*
X196000Y477709D02*
Y479874D01*
X194917Y478791D02*
X197083D01*
X267917Y457000D02*
X270083D01*
X269000Y455917D02*
Y458083D01*
X164000Y424031D02*
Y427969D01*
X162031Y426000D02*
X165969D01*
X252532Y437228D02*
X256469D01*
X254500Y435260D02*
Y439197D01*
D46*
X252728Y451228D02*
Y458315D01*
X256272Y451228D02*
Y458315D01*
X252728Y451228D02*
X256272D01*
X252728Y458315D02*
X256272D01*
X276228Y423772D02*
X283315D01*
X276228Y420228D02*
X283315D01*
X276228D02*
Y423772D01*
X283315Y420228D02*
Y423772D01*
X147185Y405772D02*
X154272D01*
X147185Y402228D02*
X154272D01*
X147185D02*
Y405772D01*
X154272Y402228D02*
Y405772D01*
X242807Y426453D02*
X256193D01*
X242807Y407555D02*
X256193D01*
Y426453D01*
X242807Y407555D02*
Y426453D01*
X276307Y446945D02*
X289693D01*
X276307Y428047D02*
X289693D01*
Y446945D01*
X276307Y428047D02*
Y446945D01*
X166189Y402000D02*
Y406000D01*
X158189D02*
X166189D01*
X158189Y402000D02*
Y406000D01*
Y402000D02*
X166189D01*
X200500Y474811D02*
X204500D01*
Y482811D01*
X200500D02*
X204500D01*
X200500Y474811D02*
Y482811D01*
X271315Y420228D02*
Y423772D01*
X264228Y420228D02*
Y423772D01*
Y420228D02*
X271315D01*
X264228Y423772D02*
X271315D01*
X194032Y475248D02*
X197968D01*
X194032Y482335D02*
X197968D01*
X194032Y475248D02*
Y482335D01*
X197968Y475248D02*
Y482335D01*
X272543Y455228D02*
Y458772D01*
X265457Y455228D02*
Y458772D01*
Y455228D02*
X272543D01*
X265457Y458772D02*
X272543D01*
X186282Y410746D02*
Y414746D01*
X178282D02*
X186282D01*
X178282Y410746D02*
Y414746D01*
Y410746D02*
X186282D01*
X162000Y434811D02*
X166000D01*
Y442811D01*
X162000D02*
X166000D01*
X162000Y434811D02*
Y442811D01*
X159669Y432890D02*
X168331D01*
X159669Y419110D02*
X168331D01*
Y432890D01*
X159669Y419110D02*
Y432890D01*
X248988Y429551D02*
Y444906D01*
X260012Y429551D02*
Y444906D01*
X248988Y429551D02*
X260012D01*
X248988Y444906D02*
X260012D01*
M02*
