G04*
G04 #@! TF.GenerationSoftware,Altium Limited,Altium Designer,25.8.1 (18)*
G04*
G04 Layer_Color=32896*
%FSLAX25Y25*%
%MOIN*%
G70*
G04*
G04 #@! TF.SameCoordinates,7B14AC28-D965-4A85-B311-1C3B9A759C65*
G04*
G04*
G04 #@! TF.FilePolarity,Positive*
G04*
G01*
G75*
%ADD11C,0.00787*%
%ADD12C,0.00600*%
D11*
X122504Y392449D02*
X220339D01*
Y490283D01*
X122504D02*
X220339D01*
X122504Y392449D02*
Y490283D01*
X220339Y424500D02*
X229000D01*
Y444500D01*
X220339D02*
X229000D01*
D12*
X294200Y469503D02*
X290202D01*
X292201D01*
Y472169D01*
X294200D01*
X290202D01*
Y473502D02*
Y474835D01*
Y474168D01*
X294200D01*
X293534Y473502D01*
X293999Y483168D02*
X290001D01*
X292000D01*
Y485834D01*
X293999D01*
X290001D01*
Y489832D02*
Y487167D01*
X292666Y489832D01*
X293333D01*
X293999Y489166D01*
Y487833D01*
X293333Y487167D01*
X121016Y380352D02*
Y384350D01*
X123015D01*
X123682Y383684D01*
Y383017D01*
X123015Y382351D01*
X121016D01*
X123015D01*
X123682Y381684D01*
Y381018D01*
X123015Y380352D01*
X121016D01*
X127681Y384350D02*
X125015D01*
X127681Y381684D01*
Y381018D01*
X127014Y380352D01*
X125681D01*
X125015Y381018D01*
M02*
