G04*
G04 #@! TF.GenerationSoftware,Altium Limited,Altium Designer,25.8.1 (18)*
G04*
G04 Layer_Color=255*
%FSLAX25Y25*%
%MOIN*%
G70*
G04*
G04 #@! TF.SameCoordinates,7B14AC28-D965-4A85-B311-1C3B9A759C65*
G04*
G04*
G04 #@! TF.FilePolarity,Positive*
G04*
G01*
G75*
%ADD13R,0.00984X0.00984*%
%ADD14R,0.02165X0.02362*%
%ADD15R,0.02362X0.02165*%
%ADD16R,0.03543X0.06299*%
%ADD17R,0.01870X0.01181*%
%ADD18R,0.11221X0.03937*%
%ADD19R,0.01181X0.01476*%
%ADD20R,0.02362X0.02441*%
%ADD21R,0.02441X0.02362*%
%ADD22R,0.02441X0.02323*%
%ADD23R,0.00787X0.00512*%
%ADD24R,0.06457X0.03150*%
%ADD25R,0.08740X0.04842*%
%ADD44C,0.04000*%
%ADD45C,0.05906*%
D13*
X162425Y411425D02*
D03*
X164000D02*
D03*
X165575D02*
D03*
Y413000D02*
D03*
X164000D02*
D03*
X162425D02*
D03*
D14*
X254500Y453000D02*
D03*
Y456543D02*
D03*
D15*
X278000Y422000D02*
D03*
X281543D02*
D03*
X148957Y404000D02*
D03*
X152500D02*
D03*
X269543Y422000D02*
D03*
X266000D02*
D03*
X270772Y457000D02*
D03*
X267228D02*
D03*
D16*
X221823Y429890D02*
D03*
X217492D02*
D03*
X213161D02*
D03*
X208831D02*
D03*
X204500D02*
D03*
X200169D02*
D03*
X195839D02*
D03*
X191508D02*
D03*
X187177D02*
D03*
Y466110D02*
D03*
X191508D02*
D03*
X195839D02*
D03*
X200169D02*
D03*
X204500D02*
D03*
X208831D02*
D03*
X213161D02*
D03*
X217492D02*
D03*
X221823D02*
D03*
D17*
X271299Y438031D02*
D03*
Y440000D02*
D03*
Y441968D02*
D03*
X264701D02*
D03*
Y440000D02*
D03*
Y438031D02*
D03*
D18*
X249500Y423500D02*
D03*
Y410508D02*
D03*
X283000Y443992D02*
D03*
Y431000D02*
D03*
D19*
X171031Y411630D02*
D03*
X173000Y410500D02*
D03*
X174969D02*
D03*
Y412760D02*
D03*
X173000D02*
D03*
D20*
X160378Y404000D02*
D03*
X164000D02*
D03*
X184093Y412746D02*
D03*
X180471D02*
D03*
D21*
X202500Y480622D02*
D03*
Y477000D02*
D03*
X164000Y440622D02*
D03*
Y437000D02*
D03*
D22*
X196000Y477000D02*
D03*
Y480583D02*
D03*
D23*
X254500Y447988D02*
D03*
Y449000D02*
D03*
D24*
X164000Y430232D02*
D03*
Y421768D02*
D03*
D25*
X254500Y432957D02*
D03*
Y441500D02*
D03*
D44*
X250752Y471120D02*
D03*
X258626D02*
D03*
X266500D02*
D03*
X274374D02*
D03*
X282248D02*
D03*
X250752Y485500D02*
D03*
X282248D02*
D03*
X274374D02*
D03*
X266500D02*
D03*
X258626D02*
D03*
D45*
X164000Y448000D02*
D03*
M02*
