G04*
G04 #@! TF.GenerationSoftware,Altium Limited,Altium Designer,25.8.1 (18)*
G04*
G04 Layer_Color=2752767*
%FSLAX25Y25*%
%MOIN*%
G70*
G04*
G04 #@! TF.SameCoordinates,7B14AC28-D965-4A85-B311-1C3B9A759C65*
G04*
G04*
G04 #@! TF.FilePolarity,Positive*
G04*
G01*
G75*
%ADD47C,0.00667*%
%ADD48C,0.00500*%
D47*
X252752Y471120D02*
G03*
X252752Y471120I-2000J0D01*
G01*
X260626D02*
G03*
X260626Y471120I-2000J0D01*
G01*
X268500D02*
G03*
X268500Y471120I-2000J0D01*
G01*
X276374D02*
G03*
X276374Y471120I-2000J0D01*
G01*
X284248D02*
G03*
X284248Y471120I-2000J0D01*
G01*
X252752Y485500D02*
G03*
X252752Y485500I-2000J0D01*
G01*
X284248D02*
G03*
X284248Y485500I-2000J0D01*
G01*
X276374D02*
G03*
X276374Y485500I-2000J0D01*
G01*
X268500D02*
G03*
X268500Y485500I-2000J0D01*
G01*
X260626D02*
G03*
X260626Y485500I-2000J0D01*
G01*
D48*
X164000Y446000D02*
X162000Y450000D01*
X166000D01*
X164000Y446000D01*
X159500Y406662D02*
Y410662D01*
X163500D01*
Y406662D01*
X159500D01*
X252500Y458000D02*
Y462000D01*
X256500D01*
Y458000D01*
X252500D01*
X283000Y420000D02*
Y424000D01*
X287000D01*
Y420000D01*
X283000D01*
X155500Y402000D02*
Y406000D01*
X159500D01*
Y402000D01*
X155500D01*
X163500Y413000D02*
Y417000D01*
X167500D01*
Y413000D01*
X163500D01*
X272500Y438000D02*
Y442000D01*
X276500D01*
Y438000D01*
X272500D01*
X203500Y475000D02*
Y479000D01*
X207500D01*
Y475000D01*
X203500D01*
X185000Y423000D02*
Y427000D01*
X189000D01*
Y423000D01*
X185000D01*
X194000D02*
Y427000D01*
X198000D01*
Y423000D01*
X194000D01*
X216000Y420000D02*
Y424000D01*
X220000D01*
Y420000D01*
X216000D01*
Y417600D02*
Y421600D01*
X220000D01*
Y417600D01*
X216000D01*
X219155Y435267D02*
Y439267D01*
X223155D01*
Y435267D01*
X219155D01*
X211444Y434556D02*
Y438556D01*
X215444D01*
Y434556D01*
X211444D01*
X214523Y437634D02*
Y441634D01*
X218523D01*
Y437634D01*
X214523D01*
X216444Y439556D02*
Y443556D01*
X220444D01*
Y439556D01*
X216444D01*
X216000Y469000D02*
Y473000D01*
X220000D01*
Y469000D01*
X216000D01*
X211500D02*
Y473000D01*
X215500D01*
Y469000D01*
X211500D01*
X235000Y428000D02*
Y432000D01*
X239000D01*
Y428000D01*
X235000D01*
Y426000D02*
Y430000D01*
X239000D01*
Y426000D01*
X235000D01*
Y424000D02*
Y428000D01*
X239000D01*
Y424000D01*
X235000D01*
Y422000D02*
Y426000D01*
X239000D01*
Y422000D01*
X235000D01*
X223500Y463000D02*
Y467000D01*
X227500D01*
Y463000D01*
X223500D01*
X207827Y469095D02*
Y473095D01*
X211827D01*
Y469095D01*
X207827D01*
X206194Y475806D02*
Y479806D01*
X210194D01*
Y475806D01*
X206194D01*
X223500Y466000D02*
Y470000D01*
X227500D01*
Y466000D01*
X223500D01*
X210000Y472000D02*
Y476000D01*
X214000D01*
Y472000D01*
X210000D01*
X211000Y484200D02*
Y488200D01*
X215000D01*
Y484200D01*
X211000D01*
X189000Y470500D02*
Y474500D01*
X193000D01*
Y470500D01*
X189000D01*
X186728Y477850D02*
Y481850D01*
X190728D01*
Y477850D01*
X186728D01*
X215570Y414200D02*
Y418200D01*
X219570D01*
Y414200D01*
X215570D01*
X200646Y472178D02*
Y476178D01*
X204646D01*
Y472178D01*
X200646D01*
X250500Y405000D02*
Y409000D01*
X254500D01*
Y405000D01*
X250500D01*
X248500D02*
Y409000D01*
X252500D01*
Y405000D01*
X248500D01*
X246500D02*
Y409000D01*
X250500D01*
Y405000D01*
X246500D01*
X244500D02*
Y409000D01*
X248500D01*
Y405000D01*
X244500D01*
X281000Y425000D02*
Y429000D01*
X285000D01*
Y425000D01*
X281000D01*
X208128Y385413D02*
Y389412D01*
X212128D01*
Y385413D01*
X208128D01*
X216124Y387337D02*
Y391337D01*
X220124D01*
Y387337D01*
X216124D01*
X217160Y395926D02*
Y399926D01*
X221160D01*
Y395926D01*
X217160D01*
Y399479D02*
Y403479D01*
X221160D01*
Y399479D01*
X217160D01*
X217012Y405402D02*
Y409402D01*
X221012D01*
Y405402D01*
X217012D01*
X217604Y410733D02*
Y414733D01*
X221604D01*
Y410733D01*
X217604D01*
X208000Y418000D02*
Y422000D01*
X212000D01*
Y418000D01*
X208000D01*
X208276Y413694D02*
Y417694D01*
X212276D01*
Y413694D01*
X208276D01*
X208720Y408068D02*
Y412068D01*
X212720D01*
Y408068D01*
X208720D01*
X204722Y400368D02*
Y404368D01*
X208722D01*
Y400368D01*
X204722D01*
X202000Y393500D02*
Y397500D01*
X206000D01*
Y393500D01*
X202000D01*
X194949Y386745D02*
Y390745D01*
X198949D01*
Y386745D01*
X194949D01*
X146678Y391928D02*
Y395928D01*
X150678D01*
Y391928D01*
X146678D01*
X155414Y390891D02*
Y394891D01*
X159414D01*
Y390891D01*
X155414D01*
X189174Y385857D02*
Y389857D01*
X193174D01*
Y385857D01*
X189174D01*
X184288D02*
Y389857D01*
X188288D01*
Y385857D01*
X184288D01*
X172500Y386500D02*
Y390500D01*
X176500D01*
Y386500D01*
X172500D01*
X169185Y386301D02*
Y390301D01*
X173185D01*
Y386301D01*
X169185D01*
X162000Y386000D02*
Y390000D01*
X166000D01*
Y386000D01*
X162000D01*
X154970Y386893D02*
Y390893D01*
X158970D01*
Y386893D01*
X154970D01*
X147714Y387189D02*
Y391189D01*
X151714D01*
Y387189D01*
X147714D01*
X138000Y387500D02*
Y391500D01*
X142000D01*
Y387500D01*
X138000D01*
X130500Y387000D02*
Y391000D01*
X134500D01*
Y387000D01*
X130500D01*
X219413Y444586D02*
Y448586D01*
X223413D01*
Y444586D01*
X219413D01*
X215500Y446000D02*
Y450000D01*
X219500D01*
Y446000D01*
X215500D01*
X208813Y445829D02*
Y449829D01*
X212813D01*
Y445829D01*
X208813D01*
X204037Y446157D02*
Y450157D01*
X208037D01*
Y446157D01*
X204037D01*
X195400Y445960D02*
Y449960D01*
X199400D01*
Y445960D01*
X195400D01*
X185846Y447007D02*
Y451007D01*
X189846D01*
Y447007D01*
X185846D01*
X185912Y452111D02*
Y456111D01*
X189912D01*
Y452111D01*
X185912D01*
X190000Y452500D02*
Y456500D01*
X194000D01*
Y452500D01*
X190000D01*
X197166Y452503D02*
Y456503D01*
X201166D01*
Y452503D01*
X197166D01*
X202728Y452307D02*
Y456307D01*
X206728D01*
Y452307D01*
X202728D01*
X208000Y452500D02*
Y456500D01*
X212000D01*
Y452500D01*
X208000D01*
X214500Y453000D02*
Y457000D01*
X218500D01*
Y453000D01*
X214500D01*
X219500Y453500D02*
Y457500D01*
X223500D01*
Y453500D01*
X219500D01*
X219000Y458000D02*
Y462000D01*
X223000D01*
Y458000D01*
X219000D01*
X214833Y457607D02*
Y461607D01*
X218833D01*
Y457607D01*
X214833D01*
X211500Y457500D02*
Y461500D01*
X215500D01*
Y457500D01*
X211500D01*
X207000D02*
Y461500D01*
X211000D01*
Y457500D01*
X207000D01*
X202500D02*
Y461500D01*
X206500D01*
Y457500D01*
X202500D01*
X199500D02*
Y461500D01*
X203500D01*
Y457500D01*
X199500D01*
X195000D02*
Y461500D01*
X199000D01*
Y457500D01*
X195000D01*
X191000Y458000D02*
Y462000D01*
X195000D01*
Y458000D01*
X191000D01*
X186500D02*
Y462000D01*
X190500D01*
Y458000D01*
X186500D01*
X136292Y396999D02*
Y400999D01*
X140292D01*
Y396999D01*
X136292D01*
X136500Y405000D02*
Y409000D01*
X140500D01*
Y405000D01*
X136500D01*
X137500Y414000D02*
Y418000D01*
X141500D01*
Y414000D01*
X137500D01*
X139500Y422500D02*
Y426500D01*
X143500D01*
Y422500D01*
X139500D01*
X146500Y436000D02*
Y440000D01*
X150500D01*
Y436000D01*
X146500D01*
X137000Y438500D02*
Y442500D01*
X141000D01*
Y438500D01*
X137000D01*
Y447000D02*
Y451000D01*
X141000D01*
Y447000D01*
X137000D01*
X147000Y447500D02*
Y451500D01*
X151000D01*
Y447500D01*
X147000D01*
X174500Y435500D02*
Y439500D01*
X178500D01*
Y435500D01*
X174500D01*
X175000Y440500D02*
Y444500D01*
X179000D01*
Y440500D01*
X175000D01*
X177000Y448500D02*
Y452500D01*
X181000D01*
Y448500D01*
X177000D01*
X176355Y455063D02*
Y459063D01*
X180355D01*
Y455063D01*
X176355D01*
X168000Y457500D02*
Y461500D01*
X172000D01*
Y457500D01*
X168000D01*
X157762Y457129D02*
Y461129D01*
X161762D01*
Y457129D01*
X157762D01*
X148000Y456000D02*
Y460000D01*
X152000D01*
Y456000D01*
X148000D01*
X137500Y455500D02*
Y459500D01*
X141500D01*
Y455500D01*
X137500D01*
X137989Y463990D02*
Y467990D01*
X141989D01*
Y463990D01*
X137989D01*
X147000Y463500D02*
Y467500D01*
X151000D01*
Y463500D01*
X147000D01*
X155500Y464000D02*
Y468000D01*
X159500D01*
Y464000D01*
X155500D01*
X167000D02*
Y468000D01*
X171000D01*
Y464000D01*
X167000D01*
X176500Y465000D02*
Y469000D01*
X180500D01*
Y465000D01*
X176500D01*
X174000Y472000D02*
Y476000D01*
X178000D01*
Y472000D01*
X174000D01*
X182500Y472500D02*
Y476500D01*
X186500D01*
Y472500D01*
X182500D01*
X165500Y472000D02*
Y476000D01*
X169500D01*
Y472000D01*
X165500D01*
X154073Y472106D02*
Y476106D01*
X158073D01*
Y472106D01*
X154073D01*
X143744Y472697D02*
Y476697D01*
X147744D01*
Y472697D01*
X143744D01*
X133500Y472500D02*
Y476500D01*
X137500D01*
Y472500D01*
X133500D01*
X133000Y479500D02*
Y483500D01*
X137000D01*
Y479500D01*
X133000D01*
X139000D02*
Y483500D01*
X143000D01*
Y479500D01*
X139000D01*
X145293Y479484D02*
Y483484D01*
X149293D01*
Y479484D01*
X145293D01*
X151500Y479500D02*
Y483500D01*
X155500D01*
Y479500D01*
X151500D01*
X157500D02*
Y483500D01*
X161500D01*
Y479500D01*
X157500D01*
X162500D02*
Y483500D01*
X166500D01*
Y479500D01*
X162500D01*
X167280Y479484D02*
Y483484D01*
X171280D01*
Y479484D01*
X167280D01*
X174067Y479337D02*
Y483337D01*
X178067D01*
Y479337D01*
X174067D01*
X178500Y479500D02*
Y483500D01*
X182500D01*
Y479500D01*
X178500D01*
X196649Y470354D02*
Y474354D01*
X200649D01*
Y470354D01*
X196649D01*
X187497Y487536D02*
Y491536D01*
X191497D01*
Y487536D01*
X187497D01*
X215901Y486511D02*
Y490511D01*
X219901D01*
Y486511D01*
X215901D01*
X209944Y487653D02*
Y491653D01*
X213944D01*
Y487653D01*
X209944D01*
X199500Y487500D02*
Y491500D01*
X203500D01*
Y487500D01*
X199500D01*
X194818Y487536D02*
Y491536D01*
X198818D01*
Y487536D01*
X194818D01*
X181500Y487500D02*
Y491500D01*
X185500D01*
Y487500D01*
X181500D01*
X172124Y487243D02*
Y491243D01*
X176123D01*
Y487243D01*
X172124D01*
X163500Y487000D02*
Y491000D01*
X167500D01*
Y487000D01*
X163500D01*
X157000Y487500D02*
Y491500D01*
X161000D01*
Y487500D01*
X157000D01*
X148000Y487000D02*
Y491000D01*
X152000D01*
Y487000D01*
X148000D01*
X137000D02*
Y491000D01*
X141000D01*
Y487000D01*
X137000D01*
X132500Y487500D02*
Y491500D01*
X136500D01*
Y487500D01*
X132500D01*
X124500Y487000D02*
Y491000D01*
X128500D01*
Y487000D01*
X124500D01*
Y478000D02*
Y482000D01*
X128500D01*
Y478000D01*
X124500D01*
X124477Y466510D02*
Y470510D01*
X128477D01*
Y466510D01*
X124477D01*
X125499Y459810D02*
Y463810D01*
X129499D01*
Y459810D01*
X125499D01*
X125953Y453337D02*
Y457337D01*
X129953D01*
Y453337D01*
X125953D01*
X125272Y445502D02*
Y449502D01*
X129272D01*
Y445502D01*
X125272D01*
X125499Y438915D02*
Y442915D01*
X129499D01*
Y438915D01*
X125499D01*
X124500Y430500D02*
Y434500D01*
X128500D01*
Y430500D01*
X124500D01*
X126000Y391000D02*
Y395000D01*
X130000D01*
Y391000D01*
X126000D01*
X125000Y398500D02*
Y402500D01*
X129000D01*
Y398500D01*
X125000D01*
X125612Y405415D02*
Y409415D01*
X129612D01*
Y405415D01*
X125612D01*
X125953Y411661D02*
Y415661D01*
X129953D01*
Y411661D01*
X125953D01*
X125000Y416500D02*
Y420500D01*
X129000D01*
Y416500D01*
X125000D01*
Y423500D02*
Y427500D01*
X129000D01*
Y423500D01*
X125000D01*
X134000Y431000D02*
Y435000D01*
X138000D01*
Y431000D01*
X134000D01*
X148000Y426000D02*
Y430000D01*
X152000D01*
Y426000D01*
X148000D01*
X152000Y423500D02*
Y427500D01*
X156000D01*
Y423500D01*
X152000D01*
X166500Y416500D02*
Y420500D01*
X170500D01*
Y416500D01*
X166500D01*
X167000Y419000D02*
Y423000D01*
X171000D01*
Y419000D01*
X167000D01*
Y421500D02*
Y425500D01*
X171000D01*
Y421500D01*
X167000D01*
X167179Y424780D02*
Y428780D01*
X171179D01*
Y424780D01*
X167179D01*
X167000Y427000D02*
Y431000D01*
X171000D01*
Y427000D01*
X167000D01*
Y429500D02*
Y433500D01*
X171000D01*
Y429500D01*
X167000D01*
X165000Y432000D02*
Y436000D01*
X169000D01*
Y432000D01*
X165000D01*
Y434500D02*
Y438500D01*
X169000D01*
Y434500D01*
X165000D01*
Y437000D02*
Y441000D01*
X169000D01*
Y437000D01*
X165000D01*
Y439500D02*
Y443500D01*
X169000D01*
Y439500D01*
X165000D01*
X166252Y442058D02*
Y446058D01*
X170252D01*
Y442058D01*
X166252D01*
X167500Y445500D02*
Y449500D01*
X171500D01*
Y445500D01*
X167500D01*
X166837Y448061D02*
Y452061D01*
X170837D01*
Y448061D01*
X166837D01*
X165080Y450453D02*
Y454453D01*
X169080D01*
Y450453D01*
X165080D01*
X162500Y451500D02*
Y455500D01*
X166500D01*
Y451500D01*
X162500D01*
X159500Y451000D02*
Y455000D01*
X163500D01*
Y451000D01*
X159500D01*
X157000Y448500D02*
Y452500D01*
X161000D01*
Y448500D01*
X157000D01*
X156500Y445500D02*
Y449500D01*
X160500D01*
Y445500D01*
X156500D01*
X157500Y442500D02*
Y446500D01*
X161500D01*
Y442500D01*
X157500D01*
X158500Y440000D02*
Y444000D01*
X162500D01*
Y440000D01*
X158500D01*
Y437500D02*
Y441500D01*
X162500D01*
Y437500D01*
X158500D01*
Y434000D02*
Y438000D01*
X162500D01*
Y434000D01*
X158500D01*
X158000Y431500D02*
Y435500D01*
X162000D01*
Y431500D01*
X158000D01*
X156500Y429000D02*
Y433000D01*
X160500D01*
Y429000D01*
X156500D01*
X157000Y426000D02*
Y430000D01*
X161000D01*
Y426000D01*
X157000D01*
Y423500D02*
Y427500D01*
X161000D01*
Y423500D01*
X157000D01*
X156500Y420000D02*
Y424000D01*
X160500D01*
Y420000D01*
X156500D01*
X157000Y417000D02*
Y421000D01*
X161000D01*
Y417000D01*
X157000D01*
Y414000D02*
Y418000D01*
X161000D01*
Y414000D01*
X157000D01*
X158005Y396717D02*
Y400717D01*
X162005D01*
Y396717D01*
X158005D01*
X158500Y399000D02*
Y403000D01*
X162500D01*
Y399000D01*
X158500D01*
X155000Y397000D02*
Y401000D01*
X159000D01*
Y397000D01*
X155000D01*
X156500Y405000D02*
Y409000D01*
X160500D01*
Y405000D01*
X156500D01*
X153500Y403000D02*
Y407000D01*
X157500D01*
Y403000D01*
X153500D01*
Y406000D02*
Y410000D01*
X157500D01*
Y406000D01*
X153500D01*
X156000Y399500D02*
Y403500D01*
X160000D01*
Y399500D01*
X156000D01*
X153500Y400500D02*
Y404500D01*
X157500D01*
Y400500D01*
X153500D01*
X165519Y406282D02*
Y410282D01*
X169519D01*
Y406282D01*
X165519D01*
X165129Y403549D02*
Y407549D01*
X169129D01*
Y403549D01*
X165129D01*
X168741Y402719D02*
Y406719D01*
X172741D01*
Y402719D01*
X168741D01*
X171500Y402500D02*
Y406500D01*
X175500D01*
Y402500D01*
X171500D01*
X175000D02*
Y406500D01*
X179000D01*
Y402500D01*
X175000D01*
X179500Y400500D02*
Y404500D01*
X183500D01*
Y400500D01*
X179500D01*
X177000Y400000D02*
Y404000D01*
X181000D01*
Y400000D01*
X177000D01*
X174500D02*
Y404000D01*
X178500D01*
Y400000D01*
X174500D01*
X171500D02*
Y404000D01*
X175500D01*
Y400000D01*
X171500D01*
X168500D02*
Y404000D01*
X172500D01*
Y400000D01*
X168500D01*
X165000D02*
Y404000D01*
X169000D01*
Y400000D01*
X165000D01*
Y397000D02*
Y401000D01*
X169000D01*
Y397000D01*
X165000D01*
X168500D02*
Y401000D01*
X172500D01*
Y397000D01*
X168500D01*
X171500D02*
Y401000D01*
X175500D01*
Y397000D01*
X171500D01*
X174500D02*
Y401000D01*
X178500D01*
Y397000D01*
X174500D01*
X177000D02*
Y401000D01*
X181000D01*
Y397000D01*
X177000D01*
X179500D02*
Y401000D01*
X183500D01*
Y397000D01*
X179500D01*
X181772Y398229D02*
Y402229D01*
X185772D01*
Y398229D01*
X181772D01*
X183188Y400621D02*
Y404621D01*
X187188D01*
Y400621D01*
X183188D01*
X185000Y402000D02*
Y406000D01*
X189000D01*
Y402000D01*
X185000D01*
X188166Y404672D02*
Y408672D01*
X192166D01*
Y404672D01*
X188166D01*
X184500Y404500D02*
Y408500D01*
X188500D01*
Y404500D01*
X184500D01*
X181500Y404000D02*
Y408000D01*
X185500D01*
Y404000D01*
X181500D01*
X178000Y404500D02*
Y408500D01*
X182000D01*
Y404500D01*
X178000D01*
X178500Y407000D02*
Y411000D01*
X182500D01*
Y407000D01*
X178500D01*
X182000Y407500D02*
Y411500D01*
X186000D01*
Y407500D01*
X182000D01*
X184500Y407000D02*
Y411000D01*
X188500D01*
Y407000D01*
X184500D01*
X186500Y408000D02*
Y412000D01*
X190500D01*
Y408000D01*
X186500D01*
X189240Y409357D02*
Y413357D01*
X193240D01*
Y409357D01*
X189240D01*
X191000Y410000D02*
Y414000D01*
X195000D01*
Y410000D01*
X191000D01*
X191500Y413000D02*
Y417000D01*
X195500D01*
Y413000D01*
X191500D01*
Y416000D02*
Y420000D01*
X195500D01*
Y416000D01*
X191500D01*
X196000Y418000D02*
Y422000D01*
X200000D01*
Y418000D01*
X196000D01*
X192000Y418500D02*
Y422500D01*
X196000D01*
Y418500D01*
X192000D01*
X194000Y419000D02*
Y423000D01*
X198000D01*
Y419000D01*
X194000D01*
X196000Y420000D02*
Y424000D01*
X200000D01*
Y420000D01*
X196000D01*
X192000Y420500D02*
Y424500D01*
X196000D01*
Y420500D01*
X192000D01*
X194000Y421000D02*
Y425000D01*
X198000D01*
Y421000D01*
X194000D01*
X196000Y422500D02*
Y426500D01*
X200000D01*
Y422500D01*
X196000D01*
X192000D02*
Y426500D01*
X196000D01*
Y422500D01*
X192000D01*
X184500Y421000D02*
Y425000D01*
X188500D01*
Y421000D01*
X184500D01*
X187000Y422000D02*
Y426000D01*
X191000D01*
Y422000D01*
X187000D01*
X182000Y423000D02*
Y427000D01*
X186000D01*
Y423000D01*
X182000D01*
X179500Y424500D02*
Y428500D01*
X183500D01*
Y424500D01*
X179500D01*
Y427000D02*
Y431000D01*
X183500D01*
Y427000D01*
X179500D01*
Y429000D02*
Y433000D01*
X183500D01*
Y429000D01*
X179500D01*
Y431000D02*
Y435000D01*
X183500D01*
Y431000D01*
X179500D01*
X180000Y433000D02*
Y437000D01*
X184000D01*
Y433000D01*
X180000D01*
X181500Y435000D02*
Y439000D01*
X185500D01*
Y435000D01*
X181500D01*
X186000Y438000D02*
Y442000D01*
X190000D01*
Y438000D01*
X186000D01*
X188000D02*
Y442000D01*
X192000D01*
Y438000D01*
X188000D01*
X190000D02*
Y442000D01*
X194000D01*
Y438000D01*
X190000D01*
X192000D02*
Y442000D01*
X196000D01*
Y438000D01*
X192000D01*
X194000D02*
Y442000D01*
X198000D01*
Y438000D01*
X194000D01*
X196000D02*
Y442000D01*
X200000D01*
Y438000D01*
X196000D01*
X198000D02*
Y442000D01*
X202000D01*
Y438000D01*
X198000D01*
X200000D02*
Y442000D01*
X204000D01*
Y438000D01*
X200000D01*
X202000D02*
Y442000D01*
X206000D01*
Y438000D01*
X202000D01*
X204000D02*
Y442000D01*
X208000D01*
Y438000D01*
X204000D01*
X206000D02*
Y442000D01*
X210000D01*
Y438000D01*
X206000D01*
X208000D02*
Y442000D01*
X212000D01*
Y438000D01*
X208000D01*
X209000Y436500D02*
Y440500D01*
X213000D01*
Y436500D01*
X209000D01*
X207000D02*
Y440500D01*
X211000D01*
Y436500D01*
X207000D01*
X205000D02*
Y440500D01*
X209000D01*
Y436500D01*
X205000D01*
X203000D02*
Y440500D01*
X207000D01*
Y436500D01*
X203000D01*
X201000D02*
Y440500D01*
X205000D01*
Y436500D01*
X201000D01*
X199000D02*
Y440500D01*
X203000D01*
Y436500D01*
X199000D01*
X197000D02*
Y440500D01*
X201000D01*
Y436500D01*
X197000D01*
X195000D02*
Y440500D01*
X199000D01*
Y436500D01*
X195000D01*
X193000D02*
Y440500D01*
X197000D01*
Y436500D01*
X193000D01*
X191000D02*
Y440500D01*
X195000D01*
Y436500D01*
X191000D01*
X189000D02*
Y440500D01*
X193000D01*
Y436500D01*
X189000D01*
X187000D02*
Y440500D01*
X191000D01*
Y436500D01*
X187000D01*
X183500Y436000D02*
Y440000D01*
X187500D01*
Y436000D01*
X183500D01*
X186000Y435000D02*
Y439000D01*
X190000D01*
Y435000D01*
X186000D01*
X188000D02*
Y439000D01*
X192000D01*
Y435000D01*
X188000D01*
X190000D02*
Y439000D01*
X194000D01*
Y435000D01*
X190000D01*
X192000D02*
Y439000D01*
X196000D01*
Y435000D01*
X192000D01*
X194000D02*
Y439000D01*
X198000D01*
Y435000D01*
X194000D01*
X196000D02*
Y439000D01*
X200000D01*
Y435000D01*
X196000D01*
X198000D02*
Y439000D01*
X202000D01*
Y435000D01*
X198000D01*
X200000D02*
Y439000D01*
X204000D01*
Y435000D01*
X200000D01*
X202000D02*
Y439000D01*
X206000D01*
Y435000D01*
X202000D01*
X204000D02*
Y439000D01*
X208000D01*
Y435000D01*
X204000D01*
X206000D02*
Y439000D01*
X210000D01*
Y435000D01*
X206000D01*
X208000D02*
Y439000D01*
X212000D01*
Y435000D01*
X208000D01*
X209000Y433500D02*
Y437500D01*
X213000D01*
Y433500D01*
X209000D01*
X207000D02*
Y437500D01*
X211000D01*
Y433500D01*
X207000D01*
X205000D02*
Y437500D01*
X209000D01*
Y433500D01*
X205000D01*
X203000D02*
Y437500D01*
X207000D01*
Y433500D01*
X203000D01*
X201000D02*
Y437500D01*
X205000D01*
Y433500D01*
X201000D01*
X199000D02*
Y437500D01*
X203000D01*
Y433500D01*
X199000D01*
X197000D02*
Y437500D01*
X201000D01*
Y433500D01*
X197000D01*
X195000D02*
Y437500D01*
X199000D01*
Y433500D01*
X195000D01*
X193000D02*
Y437500D01*
X197000D01*
Y433500D01*
X193000D01*
X191000D02*
Y437500D01*
X195000D01*
Y433500D01*
X191000D01*
X189000D02*
Y437500D01*
X193000D01*
Y433500D01*
X189000D01*
X187000D02*
Y437500D01*
X191000D01*
Y433500D01*
X187000D01*
X183500Y433000D02*
Y437000D01*
X187500D01*
Y433000D01*
X183500D01*
X182000Y430500D02*
Y434500D01*
X186000D01*
Y430500D01*
X182000D01*
Y428000D02*
Y432000D01*
X186000D01*
Y428000D01*
X182000D01*
Y425500D02*
Y429500D01*
X186000D01*
Y425500D01*
X182000D01*
X158500Y408500D02*
Y412500D01*
X162500D01*
Y408500D01*
X158500D01*
X144000Y402000D02*
Y406000D01*
X148000D01*
Y402000D01*
X144000D01*
X166000Y412500D02*
Y416500D01*
X170000D01*
Y412500D01*
X166000D01*
X175000Y407000D02*
Y411000D01*
X179000D01*
Y407000D01*
X175000D01*
X173000Y406000D02*
Y410000D01*
X177000D01*
Y406000D01*
X173000D01*
X169000Y412500D02*
Y416500D01*
X173000D01*
Y412500D01*
X169000D01*
X171000Y413500D02*
Y417500D01*
X175000D01*
Y413500D01*
X171000D01*
X169000Y407000D02*
Y411000D01*
X173000D01*
Y407000D01*
X169000D01*
X171000Y406000D02*
Y410000D01*
X175000D01*
Y406000D01*
X171000D01*
X223500Y470500D02*
Y474500D01*
X227500D01*
Y470500D01*
X223500D01*
X202500Y469000D02*
Y473000D01*
X206500D01*
Y469000D01*
X202500D01*
X185500D02*
Y473000D01*
X189500D01*
Y469000D01*
X185500D01*
X211500Y423000D02*
Y427000D01*
X215500D01*
Y423000D01*
X211500D01*
X162000Y399000D02*
Y403000D01*
X166000D01*
Y399000D01*
X162000D01*
Y392300D02*
Y396300D01*
X166000D01*
Y392300D01*
X162000D01*
M02*
