G04*
G04 #@! TF.GenerationSoftware,Altium Limited,Altium Designer,25.8.1 (18)*
G04*
G04 Layer_Color=16711935*
%FSLAX25Y25*%
%MOIN*%
G70*
G04*
G04 #@! TF.SameCoordinates,7B14AC28-D965-4A85-B311-1C3B9A759C65*
G04*
G04*
G04 #@! TF.FilePolarity,Positive*
G04*
G01*
G75*
%ADD10C,0.00394*%
%ADD11C,0.00787*%
D10*
X253417Y452606D02*
Y456937D01*
X255583Y452606D02*
Y456937D01*
X253417Y452606D02*
X255583D01*
X253417Y456937D02*
X255583D01*
X277606Y423083D02*
X281937D01*
X277606Y420917D02*
X281937D01*
X277606D02*
Y423083D01*
X281937Y420917D02*
Y423083D01*
X148563Y405083D02*
X152894D01*
X148563Y402917D02*
X152894D01*
X148563D02*
Y405083D01*
X152894Y402917D02*
Y405083D01*
X243890Y423992D02*
X255110D01*
X243890Y410016D02*
X255110D01*
Y423992D01*
X243890Y410016D02*
Y423992D01*
X277390Y444484D02*
X288610D01*
X277390Y430508D02*
X288610D01*
Y444484D01*
X277390Y430508D02*
Y444484D01*
X269937Y420917D02*
Y423083D01*
X265606Y420917D02*
Y423083D01*
Y420917D02*
X269937D01*
X265606Y423083D02*
X269937D01*
X194917Y476724D02*
X197083D01*
X194917Y480858D02*
X197083D01*
X194917Y476724D02*
Y480858D01*
X197083Y476724D02*
Y480858D01*
X271165Y455917D02*
Y458083D01*
X266835Y455917D02*
Y458083D01*
Y455917D02*
X271165D01*
X266835Y458083D02*
X271165D01*
X160850Y430350D02*
X167150D01*
X160850Y421650D02*
X167150D01*
Y430350D01*
X160850Y421650D02*
Y430350D01*
X250169Y431913D02*
Y442543D01*
X258831Y431913D02*
Y442543D01*
X250169Y431913D02*
X258831D01*
X250169Y442543D02*
X258831D01*
D11*
X162031Y410835D02*
Y413590D01*
X165969D01*
Y410835D02*
Y413590D01*
X162031Y410835D02*
X165969D01*
M02*
